<?xml version="1.0" encoding="utf-8"?>
<!DOCTYPE svg PUBLIC "-//W3C//DTD SVG 1.1//EN" "http://www.w3.org/Graphics/SVG/1.1/DTD/svg11.dtd">
<svg version="1.1" id="Layer_1" xmlns="http://www.w3.org/2000/svg" xmlns:xlink="http://www.w3.org/1999/xlink" x="0px" y="0px"
width="2320px" height="2320px" viewBox="0 0 2320 2320" enable-background="new 0 0 2320 2320" xml:space="preserve">
<rect x="0" y="0" width="2320" height="2320" fill="rgb(238,239,241)" /><g transform="translate(160,160)"><g><defs>
    <radialGradient id="grad">
    <stop offset="5%" stop-color="rgb(0,0,0)" />
    <stop offset="95%" stop-color="rgb(254,108,0)" />
    </radialGradient>
<mask id="gmask"><g>
<g transform="translate(880,0) scale(0.8,0.8)"><g transform="" style="fill: rgb(255, 255, 255);">
<g>
	<circle cx="50" cy="50" r="30"/>
</g>
</g></g><g transform="translate(1040,0) scale(0.8,0.8)"><g transform="" style="fill: rgb(255, 255, 255);">
<g>
	<circle cx="50" cy="50" r="30"/>
</g>
</g></g><g transform="translate(720,80) scale(0.8,0.8)"><g transform="" style="fill: rgb(255, 255, 255);">
<g>
	<circle cx="50" cy="50" r="30"/>
</g>
</g></g><g transform="translate(960,80) scale(0.8,0.8)"><g transform="" style="fill: rgb(255, 255, 255);">
<g>
	<circle cx="50" cy="50" r="30"/>
</g>
</g></g><g transform="translate(1040,80) scale(0.8,0.8)"><g transform="" style="fill: rgb(255, 255, 255);">
<g>
	<circle cx="50" cy="50" r="30"/>
</g>
</g></g><g transform="translate(1120,80) scale(0.8,0.8)"><g transform="" style="fill: rgb(255, 255, 255);">
<g>
	<circle cx="50" cy="50" r="30"/>
</g>
</g></g><g transform="translate(1200,80) scale(0.8,0.8)"><g transform="" style="fill: rgb(255, 255, 255);">
<g>
	<circle cx="50" cy="50" r="30"/>
</g>
</g></g><g transform="translate(1280,80) scale(0.8,0.8)"><g transform="" style="fill: rgb(255, 255, 255);">
<g>
	<circle cx="50" cy="50" r="30"/>
</g>
</g></g><g transform="translate(640,160) scale(0.8,0.8)"><g transform="" style="fill: rgb(255, 255, 255);">
<g>
	<circle cx="50" cy="50" r="30"/>
</g>
</g></g><g transform="translate(720,160) scale(0.8,0.8)"><g transform="" style="fill: rgb(255, 255, 255);">
<g>
	<circle cx="50" cy="50" r="30"/>
</g>
</g></g><g transform="translate(880,160) scale(0.8,0.8)"><g transform="" style="fill: rgb(255, 255, 255);">
<g>
	<circle cx="50" cy="50" r="30"/>
</g>
</g></g><g transform="translate(1200,160) scale(0.8,0.8)"><g transform="" style="fill: rgb(255, 255, 255);">
<g>
	<circle cx="50" cy="50" r="30"/>
</g>
</g></g><g transform="translate(1280,160) scale(0.8,0.8)"><g transform="" style="fill: rgb(255, 255, 255);">
<g>
	<circle cx="50" cy="50" r="30"/>
</g>
</g></g><g transform="translate(640,240) scale(0.8,0.8)"><g transform="" style="fill: rgb(255, 255, 255);">
<g>
	<circle cx="50" cy="50" r="30"/>
</g>
</g></g><g transform="translate(800,240) scale(0.8,0.8)"><g transform="" style="fill: rgb(255, 255, 255);">
<g>
	<circle cx="50" cy="50" r="30"/>
</g>
</g></g><g transform="translate(960,240) scale(0.8,0.8)"><g transform="" style="fill: rgb(255, 255, 255);">
<g>
	<circle cx="50" cy="50" r="30"/>
</g>
</g></g><g transform="translate(1040,240) scale(0.8,0.8)"><g transform="" style="fill: rgb(255, 255, 255);">
<g>
	<circle cx="50" cy="50" r="30"/>
</g>
</g></g><g transform="translate(1120,240) scale(0.8,0.8)"><g transform="" style="fill: rgb(255, 255, 255);">
<g>
	<circle cx="50" cy="50" r="30"/>
</g>
</g></g><g transform="translate(1200,240) scale(0.8,0.8)"><g transform="" style="fill: rgb(255, 255, 255);">
<g>
	<circle cx="50" cy="50" r="30"/>
</g>
</g></g><g transform="translate(640,320) scale(0.8,0.8)"><g transform="" style="fill: rgb(255, 255, 255);">
<g>
	<circle cx="50" cy="50" r="30"/>
</g>
</g></g><g transform="translate(720,320) scale(0.8,0.8)"><g transform="" style="fill: rgb(255, 255, 255);">
<g>
	<circle cx="50" cy="50" r="30"/>
</g>
</g></g><g transform="translate(880,320) scale(0.8,0.8)"><g transform="" style="fill: rgb(255, 255, 255);">
<g>
	<circle cx="50" cy="50" r="30"/>
</g>
</g></g><g transform="translate(1040,320) scale(0.8,0.8)"><g transform="" style="fill: rgb(255, 255, 255);">
<g>
	<circle cx="50" cy="50" r="30"/>
</g>
</g></g><g transform="translate(1280,320) scale(0.8,0.8)"><g transform="" style="fill: rgb(255, 255, 255);">
<g>
	<circle cx="50" cy="50" r="30"/>
</g>
</g></g><g transform="translate(640,400) scale(0.8,0.8)"><g transform="" style="fill: rgb(255, 255, 255);">
<g>
	<circle cx="50" cy="50" r="30"/>
</g>
</g></g><g transform="translate(720,400) scale(0.8,0.8)"><g transform="" style="fill: rgb(255, 255, 255);">
<g>
	<circle cx="50" cy="50" r="30"/>
</g>
</g></g><g transform="translate(880,400) scale(0.8,0.8)"><g transform="" style="fill: rgb(255, 255, 255);">
<g>
	<circle cx="50" cy="50" r="30"/>
</g>
</g></g><g transform="translate(960,400) scale(0.8,0.8)"><g transform="" style="fill: rgb(255, 255, 255);">
<g>
	<circle cx="50" cy="50" r="30"/>
</g>
</g></g><g transform="translate(1040,400) scale(0.8,0.8)"><g transform="" style="fill: rgb(255, 255, 255);">
<g>
	<circle cx="50" cy="50" r="30"/>
</g>
</g></g><g transform="translate(1120,400) scale(0.8,0.8)"><g transform="" style="fill: rgb(255, 255, 255);">
<g>
	<circle cx="50" cy="50" r="30"/>
</g>
</g></g><g transform="translate(1200,400) scale(0.8,0.8)"><g transform="" style="fill: rgb(255, 255, 255);">
<g>
	<circle cx="50" cy="50" r="30"/>
</g>
</g></g><g transform="translate(640,480) scale(0.8,0.8)"><g transform="" style="fill: rgb(255, 255, 255);">
<g>
	<circle cx="50" cy="50" r="30"/>
</g>
</g></g><g transform="translate(800,480) scale(0.8,0.8)"><g transform="" style="fill: rgb(255, 255, 255);">
<g>
	<circle cx="50" cy="50" r="30"/>
</g>
</g></g><g transform="translate(960,480) scale(0.8,0.8)"><g transform="" style="fill: rgb(255, 255, 255);">
<g>
	<circle cx="50" cy="50" r="30"/>
</g>
</g></g><g transform="translate(1120,480) scale(0.8,0.8)"><g transform="" style="fill: rgb(255, 255, 255);">
<g>
	<circle cx="50" cy="50" r="30"/>
</g>
</g></g><g transform="translate(1280,480) scale(0.8,0.8)"><g transform="" style="fill: rgb(255, 255, 255);">
<g>
	<circle cx="50" cy="50" r="30"/>
</g>
</g></g><g transform="translate(640,560) scale(0.8,0.8)"><g transform="" style="fill: rgb(255, 255, 255);">
<g>
	<circle cx="50" cy="50" r="30"/>
</g>
</g></g><g transform="translate(960,560) scale(0.8,0.8)"><g transform="" style="fill: rgb(255, 255, 255);">
<g>
	<circle cx="50" cy="50" r="30"/>
</g>
</g></g><g transform="translate(1200,560) scale(0.8,0.8)"><g transform="" style="fill: rgb(255, 255, 255);">
<g>
	<circle cx="50" cy="50" r="30"/>
</g>
</g></g><g transform="translate(1280,560) scale(0.8,0.8)"><g transform="" style="fill: rgb(255, 255, 255);">
<g>
	<circle cx="50" cy="50" r="30"/>
</g>
</g></g><g transform="translate(0,640) scale(0.8,0.8)"><g transform="" style="fill: rgb(255, 255, 255);">
<g>
	<circle cx="50" cy="50" r="30"/>
</g>
</g></g><g transform="translate(160,640) scale(0.8,0.8)"><g transform="" style="fill: rgb(255, 255, 255);">
<g>
	<circle cx="50" cy="50" r="30"/>
</g>
</g></g><g transform="translate(240,640) scale(0.8,0.8)"><g transform="" style="fill: rgb(255, 255, 255);">
<g>
	<circle cx="50" cy="50" r="30"/>
</g>
</g></g><g transform="translate(320,640) scale(0.8,0.8)"><g transform="" style="fill: rgb(255, 255, 255);">
<g>
	<circle cx="50" cy="50" r="30"/>
</g>
</g></g><g transform="translate(400,640) scale(0.8,0.8)"><g transform="" style="fill: rgb(255, 255, 255);">
<g>
	<circle cx="50" cy="50" r="30"/>
</g>
</g></g><g transform="translate(480,640) scale(0.8,0.8)"><g transform="" style="fill: rgb(255, 255, 255);">
<g>
	<circle cx="50" cy="50" r="30"/>
</g>
</g></g><g transform="translate(720,640) scale(0.8,0.8)"><g transform="" style="fill: rgb(255, 255, 255);">
<g>
	<circle cx="50" cy="50" r="30"/>
</g>
</g></g><g transform="translate(960,640) scale(0.8,0.8)"><g transform="" style="fill: rgb(255, 255, 255);">
<g>
	<circle cx="50" cy="50" r="30"/>
</g>
</g></g><g transform="translate(1040,640) scale(0.8,0.8)"><g transform="" style="fill: rgb(255, 255, 255);">
<g>
	<circle cx="50" cy="50" r="30"/>
</g>
</g></g><g transform="translate(1120,640) scale(0.8,0.8)"><g transform="" style="fill: rgb(255, 255, 255);">
<g>
	<circle cx="50" cy="50" r="30"/>
</g>
</g></g><g transform="translate(1440,640) scale(0.8,0.8)"><g transform="" style="fill: rgb(255, 255, 255);">
<g>
	<circle cx="50" cy="50" r="30"/>
</g>
</g></g><g transform="translate(1520,640) scale(0.8,0.8)"><g transform="" style="fill: rgb(255, 255, 255);">
<g>
	<circle cx="50" cy="50" r="30"/>
</g>
</g></g><g transform="translate(1600,640) scale(0.8,0.8)"><g transform="" style="fill: rgb(255, 255, 255);">
<g>
	<circle cx="50" cy="50" r="30"/>
</g>
</g></g><g transform="translate(1680,640) scale(0.8,0.8)"><g transform="" style="fill: rgb(255, 255, 255);">
<g>
	<circle cx="50" cy="50" r="30"/>
</g>
</g></g><g transform="translate(1760,640) scale(0.8,0.8)"><g transform="" style="fill: rgb(255, 255, 255);">
<g>
	<circle cx="50" cy="50" r="30"/>
</g>
</g></g><g transform="translate(0,720) scale(0.8,0.8)"><g transform="" style="fill: rgb(255, 255, 255);">
<g>
	<circle cx="50" cy="50" r="30"/>
</g>
</g></g><g transform="translate(80,720) scale(0.8,0.8)"><g transform="" style="fill: rgb(255, 255, 255);">
<g>
	<circle cx="50" cy="50" r="30"/>
</g>
</g></g><g transform="translate(160,720) scale(0.8,0.8)"><g transform="" style="fill: rgb(255, 255, 255);">
<g>
	<circle cx="50" cy="50" r="30"/>
</g>
</g></g><g transform="translate(240,720) scale(0.8,0.8)"><g transform="" style="fill: rgb(255, 255, 255);">
<g>
	<circle cx="50" cy="50" r="30"/>
</g>
</g></g><g transform="translate(320,720) scale(0.8,0.8)"><g transform="" style="fill: rgb(255, 255, 255);">
<g>
	<circle cx="50" cy="50" r="30"/>
</g>
</g></g><g transform="translate(400,720) scale(0.8,0.8)"><g transform="" style="fill: rgb(255, 255, 255);">
<g>
	<circle cx="50" cy="50" r="30"/>
</g>
</g></g><g transform="translate(720,720) scale(0.8,0.8)"><g transform="" style="fill: rgb(255, 255, 255);">
<g>
	<circle cx="50" cy="50" r="30"/>
</g>
</g></g><g transform="translate(1040,720) scale(0.8,0.8)"><g transform="" style="fill: rgb(255, 255, 255);">
<g>
	<circle cx="50" cy="50" r="30"/>
</g>
</g></g><g transform="translate(1280,720) scale(0.8,0.8)"><g transform="" style="fill: rgb(255, 255, 255);">
<g>
	<circle cx="50" cy="50" r="30"/>
</g>
</g></g><g transform="translate(1360,720) scale(0.8,0.8)"><g transform="" style="fill: rgb(255, 255, 255);">
<g>
	<circle cx="50" cy="50" r="30"/>
</g>
</g></g><g transform="translate(1520,720) scale(0.8,0.8)"><g transform="" style="fill: rgb(255, 255, 255);">
<g>
	<circle cx="50" cy="50" r="30"/>
</g>
</g></g><g transform="translate(1840,720) scale(0.8,0.8)"><g transform="" style="fill: rgb(255, 255, 255);">
<g>
	<circle cx="50" cy="50" r="30"/>
</g>
</g></g><g transform="translate(0,800) scale(0.8,0.8)"><g transform="" style="fill: rgb(255, 255, 255);">
<g>
	<circle cx="50" cy="50" r="30"/>
</g>
</g></g><g transform="translate(80,800) scale(0.8,0.8)"><g transform="" style="fill: rgb(255, 255, 255);">
<g>
	<circle cx="50" cy="50" r="30"/>
</g>
</g></g><g transform="translate(400,800) scale(0.8,0.8)"><g transform="" style="fill: rgb(255, 255, 255);">
<g>
	<circle cx="50" cy="50" r="30"/>
</g>
</g></g><g transform="translate(480,800) scale(0.8,0.8)"><g transform="" style="fill: rgb(255, 255, 255);">
<g>
	<circle cx="50" cy="50" r="30"/>
</g>
</g></g><g transform="translate(720,800) scale(0.8,0.8)"><g transform="" style="fill: rgb(255, 255, 255);">
<g>
	<circle cx="50" cy="50" r="30"/>
</g>
</g></g><g transform="translate(1040,800) scale(0.8,0.8)"><g transform="" style="fill: rgb(255, 255, 255);">
<g>
	<circle cx="50" cy="50" r="30"/>
</g>
</g></g><g transform="translate(1120,800) scale(0.8,0.8)"><g transform="" style="fill: rgb(255, 255, 255);">
<g>
	<circle cx="50" cy="50" r="30"/>
</g>
</g></g><g transform="translate(1200,800) scale(0.8,0.8)"><g transform="" style="fill: rgb(255, 255, 255);">
<g>
	<circle cx="50" cy="50" r="30"/>
</g>
</g></g><g transform="translate(1360,800) scale(0.8,0.8)"><g transform="" style="fill: rgb(255, 255, 255);">
<g>
	<circle cx="50" cy="50" r="30"/>
</g>
</g></g><g transform="translate(1440,800) scale(0.8,0.8)"><g transform="" style="fill: rgb(255, 255, 255);">
<g>
	<circle cx="50" cy="50" r="30"/>
</g>
</g></g><g transform="translate(1520,800) scale(0.8,0.8)"><g transform="" style="fill: rgb(255, 255, 255);">
<g>
	<circle cx="50" cy="50" r="30"/>
</g>
</g></g><g transform="translate(1600,800) scale(0.8,0.8)"><g transform="" style="fill: rgb(255, 255, 255);">
<g>
	<circle cx="50" cy="50" r="30"/>
</g>
</g></g><g transform="translate(1680,800) scale(0.8,0.8)"><g transform="" style="fill: rgb(255, 255, 255);">
<g>
	<circle cx="50" cy="50" r="30"/>
</g>
</g></g><g transform="translate(1840,800) scale(0.8,0.8)"><g transform="" style="fill: rgb(255, 255, 255);">
<g>
	<circle cx="50" cy="50" r="30"/>
</g>
</g></g><g transform="translate(1920,800) scale(0.8,0.8)"><g transform="" style="fill: rgb(255, 255, 255);">
<g>
	<circle cx="50" cy="50" r="30"/>
</g>
</g></g><g transform="translate(80,880) scale(0.8,0.8)"><g transform="" style="fill: rgb(255, 255, 255);">
<g>
	<circle cx="50" cy="50" r="30"/>
</g>
</g></g><g transform="translate(160,880) scale(0.8,0.8)"><g transform="" style="fill: rgb(255, 255, 255);">
<g>
	<circle cx="50" cy="50" r="30"/>
</g>
</g></g><g transform="translate(240,880) scale(0.8,0.8)"><g transform="" style="fill: rgb(255, 255, 255);">
<g>
	<circle cx="50" cy="50" r="30"/>
</g>
</g></g><g transform="translate(800,880) scale(0.8,0.8)"><g transform="" style="fill: rgb(255, 255, 255);">
<g>
	<circle cx="50" cy="50" r="30"/>
</g>
</g></g><g transform="translate(880,880) scale(0.8,0.8)"><g transform="" style="fill: rgb(255, 255, 255);">
<g>
	<circle cx="50" cy="50" r="30"/>
</g>
</g></g><g transform="translate(1120,880) scale(0.8,0.8)"><g transform="" style="fill: rgb(255, 255, 255);">
<g>
	<circle cx="50" cy="50" r="30"/>
</g>
</g></g><g transform="translate(1200,880) scale(0.8,0.8)"><g transform="" style="fill: rgb(255, 255, 255);">
<g>
	<circle cx="50" cy="50" r="30"/>
</g>
</g></g><g transform="translate(1280,880) scale(0.8,0.8)"><g transform="" style="fill: rgb(255, 255, 255);">
<g>
	<circle cx="50" cy="50" r="30"/>
</g>
</g></g><g transform="translate(1360,880) scale(0.8,0.8)"><g transform="" style="fill: rgb(255, 255, 255);">
<g>
	<circle cx="50" cy="50" r="30"/>
</g>
</g></g><g transform="translate(1520,880) scale(0.8,0.8)"><g transform="" style="fill: rgb(255, 255, 255);">
<g>
	<circle cx="50" cy="50" r="30"/>
</g>
</g></g><g transform="translate(1920,880) scale(0.8,0.8)"><g transform="" style="fill: rgb(255, 255, 255);">
<g>
	<circle cx="50" cy="50" r="30"/>
</g>
</g></g><g transform="translate(80,960) scale(0.8,0.8)"><g transform="" style="fill: rgb(255, 255, 255);">
<g>
	<circle cx="50" cy="50" r="30"/>
</g>
</g></g><g transform="translate(320,960) scale(0.8,0.8)"><g transform="" style="fill: rgb(255, 255, 255);">
<g>
	<circle cx="50" cy="50" r="30"/>
</g>
</g></g><g transform="translate(400,960) scale(0.8,0.8)"><g transform="" style="fill: rgb(255, 255, 255);">
<g>
	<circle cx="50" cy="50" r="30"/>
</g>
</g></g><g transform="translate(480,960) scale(0.8,0.8)"><g transform="" style="fill: rgb(255, 255, 255);">
<g>
	<circle cx="50" cy="50" r="30"/>
</g>
</g></g><g transform="translate(560,960) scale(0.8,0.8)"><g transform="" style="fill: rgb(255, 255, 255);">
<g>
	<circle cx="50" cy="50" r="30"/>
</g>
</g></g><g transform="translate(640,960) scale(0.8,0.8)"><g transform="" style="fill: rgb(255, 255, 255);">
<g>
	<circle cx="50" cy="50" r="30"/>
</g>
</g></g><g transform="translate(720,960) scale(0.8,0.8)"><g transform="" style="fill: rgb(255, 255, 255);">
<g>
	<circle cx="50" cy="50" r="30"/>
</g>
</g></g><g transform="translate(800,960) scale(0.8,0.8)"><g transform="" style="fill: rgb(255, 255, 255);">
<g>
	<circle cx="50" cy="50" r="30"/>
</g>
</g></g><g transform="translate(880,960) scale(0.8,0.8)"><g transform="" style="fill: rgb(255, 255, 255);">
<g>
	<circle cx="50" cy="50" r="30"/>
</g>
</g></g><g transform="translate(1440,960) scale(0.8,0.8)"><g transform="" style="fill: rgb(255, 255, 255);">
<g>
	<circle cx="50" cy="50" r="30"/>
</g>
</g></g><g transform="translate(1520,960) scale(0.8,0.8)"><g transform="" style="fill: rgb(255, 255, 255);">
<g>
	<circle cx="50" cy="50" r="30"/>
</g>
</g></g><g transform="translate(1600,960) scale(0.8,0.8)"><g transform="" style="fill: rgb(255, 255, 255);">
<g>
	<circle cx="50" cy="50" r="30"/>
</g>
</g></g><g transform="translate(1760,960) scale(0.8,0.8)"><g transform="" style="fill: rgb(255, 255, 255);">
<g>
	<circle cx="50" cy="50" r="30"/>
</g>
</g></g><g transform="translate(1840,960) scale(0.8,0.8)"><g transform="" style="fill: rgb(255, 255, 255);">
<g>
	<circle cx="50" cy="50" r="30"/>
</g>
</g></g><g transform="translate(1920,960) scale(0.8,0.8)"><g transform="" style="fill: rgb(255, 255, 255);">
<g>
	<circle cx="50" cy="50" r="30"/>
</g>
</g></g><g transform="translate(0,1040) scale(0.8,0.8)"><g transform="" style="fill: rgb(255, 255, 255);">
<g>
	<circle cx="50" cy="50" r="30"/>
</g>
</g></g><g transform="translate(80,1040) scale(0.8,0.8)"><g transform="" style="fill: rgb(255, 255, 255);">
<g>
	<circle cx="50" cy="50" r="30"/>
</g>
</g></g><g transform="translate(240,1040) scale(0.8,0.8)"><g transform="" style="fill: rgb(255, 255, 255);">
<g>
	<circle cx="50" cy="50" r="30"/>
</g>
</g></g><g transform="translate(560,1040) scale(0.8,0.8)"><g transform="" style="fill: rgb(255, 255, 255);">
<g>
	<circle cx="50" cy="50" r="30"/>
</g>
</g></g><g transform="translate(720,1040) scale(0.8,0.8)"><g transform="" style="fill: rgb(255, 255, 255);">
<g>
	<circle cx="50" cy="50" r="30"/>
</g>
</g></g><g transform="translate(960,1040) scale(0.8,0.8)"><g transform="" style="fill: rgb(255, 255, 255);">
<g>
	<circle cx="50" cy="50" r="30"/>
</g>
</g></g><g transform="translate(1040,1040) scale(0.8,0.8)"><g transform="" style="fill: rgb(255, 255, 255);">
<g>
	<circle cx="50" cy="50" r="30"/>
</g>
</g></g><g transform="translate(1280,1040) scale(0.8,0.8)"><g transform="" style="fill: rgb(255, 255, 255);">
<g>
	<circle cx="50" cy="50" r="30"/>
</g>
</g></g><g transform="translate(1520,1040) scale(0.8,0.8)"><g transform="" style="fill: rgb(255, 255, 255);">
<g>
	<circle cx="50" cy="50" r="30"/>
</g>
</g></g><g transform="translate(1680,1040) scale(0.8,0.8)"><g transform="" style="fill: rgb(255, 255, 255);">
<g>
	<circle cx="50" cy="50" r="30"/>
</g>
</g></g><g transform="translate(1840,1040) scale(0.8,0.8)"><g transform="" style="fill: rgb(255, 255, 255);">
<g>
	<circle cx="50" cy="50" r="30"/>
</g>
</g></g><g transform="translate(0,1120) scale(0.8,0.8)"><g transform="" style="fill: rgb(255, 255, 255);">
<g>
	<circle cx="50" cy="50" r="30"/>
</g>
</g></g><g transform="translate(480,1120) scale(0.8,0.8)"><g transform="" style="fill: rgb(255, 255, 255);">
<g>
	<circle cx="50" cy="50" r="30"/>
</g>
</g></g><g transform="translate(560,1120) scale(0.8,0.8)"><g transform="" style="fill: rgb(255, 255, 255);">
<g>
	<circle cx="50" cy="50" r="30"/>
</g>
</g></g><g transform="translate(640,1120) scale(0.8,0.8)"><g transform="" style="fill: rgb(255, 255, 255);">
<g>
	<circle cx="50" cy="50" r="30"/>
</g>
</g></g><g transform="translate(1040,1120) scale(0.8,0.8)"><g transform="" style="fill: rgb(255, 255, 255);">
<g>
	<circle cx="50" cy="50" r="30"/>
</g>
</g></g><g transform="translate(1120,1120) scale(0.8,0.8)"><g transform="" style="fill: rgb(255, 255, 255);">
<g>
	<circle cx="50" cy="50" r="30"/>
</g>
</g></g><g transform="translate(1200,1120) scale(0.8,0.8)"><g transform="" style="fill: rgb(255, 255, 255);">
<g>
	<circle cx="50" cy="50" r="30"/>
</g>
</g></g><g transform="translate(1280,1120) scale(0.8,0.8)"><g transform="" style="fill: rgb(255, 255, 255);">
<g>
	<circle cx="50" cy="50" r="30"/>
</g>
</g></g><g transform="translate(1360,1120) scale(0.8,0.8)"><g transform="" style="fill: rgb(255, 255, 255);">
<g>
	<circle cx="50" cy="50" r="30"/>
</g>
</g></g><g transform="translate(1520,1120) scale(0.8,0.8)"><g transform="" style="fill: rgb(255, 255, 255);">
<g>
	<circle cx="50" cy="50" r="30"/>
</g>
</g></g><g transform="translate(1600,1120) scale(0.8,0.8)"><g transform="" style="fill: rgb(255, 255, 255);">
<g>
	<circle cx="50" cy="50" r="30"/>
</g>
</g></g><g transform="translate(1680,1120) scale(0.8,0.8)"><g transform="" style="fill: rgb(255, 255, 255);">
<g>
	<circle cx="50" cy="50" r="30"/>
</g>
</g></g><g transform="translate(1840,1120) scale(0.8,0.8)"><g transform="" style="fill: rgb(255, 255, 255);">
<g>
	<circle cx="50" cy="50" r="30"/>
</g>
</g></g><g transform="translate(1920,1120) scale(0.8,0.8)"><g transform="" style="fill: rgb(255, 255, 255);">
<g>
	<circle cx="50" cy="50" r="30"/>
</g>
</g></g><g transform="translate(0,1200) scale(0.8,0.8)"><g transform="" style="fill: rgb(255, 255, 255);">
<g>
	<circle cx="50" cy="50" r="30"/>
</g>
</g></g><g transform="translate(160,1200) scale(0.8,0.8)"><g transform="" style="fill: rgb(255, 255, 255);">
<g>
	<circle cx="50" cy="50" r="30"/>
</g>
</g></g><g transform="translate(240,1200) scale(0.8,0.8)"><g transform="" style="fill: rgb(255, 255, 255);">
<g>
	<circle cx="50" cy="50" r="30"/>
</g>
</g></g><g transform="translate(320,1200) scale(0.8,0.8)"><g transform="" style="fill: rgb(255, 255, 255);">
<g>
	<circle cx="50" cy="50" r="30"/>
</g>
</g></g><g transform="translate(640,1200) scale(0.8,0.8)"><g transform="" style="fill: rgb(255, 255, 255);">
<g>
	<circle cx="50" cy="50" r="30"/>
</g>
</g></g><g transform="translate(720,1200) scale(0.8,0.8)"><g transform="" style="fill: rgb(255, 255, 255);">
<g>
	<circle cx="50" cy="50" r="30"/>
</g>
</g></g><g transform="translate(960,1200) scale(0.8,0.8)"><g transform="" style="fill: rgb(255, 255, 255);">
<g>
	<circle cx="50" cy="50" r="30"/>
</g>
</g></g><g transform="translate(1040,1200) scale(0.8,0.8)"><g transform="" style="fill: rgb(255, 255, 255);">
<g>
	<circle cx="50" cy="50" r="30"/>
</g>
</g></g><g transform="translate(1200,1200) scale(0.8,0.8)"><g transform="" style="fill: rgb(255, 255, 255);">
<g>
	<circle cx="50" cy="50" r="30"/>
</g>
</g></g><g transform="translate(1520,1200) scale(0.8,0.8)"><g transform="" style="fill: rgb(255, 255, 255);">
<g>
	<circle cx="50" cy="50" r="30"/>
</g>
</g></g><g transform="translate(1680,1200) scale(0.8,0.8)"><g transform="" style="fill: rgb(255, 255, 255);">
<g>
	<circle cx="50" cy="50" r="30"/>
</g>
</g></g><g transform="translate(1920,1200) scale(0.8,0.8)"><g transform="" style="fill: rgb(255, 255, 255);">
<g>
	<circle cx="50" cy="50" r="30"/>
</g>
</g></g><g transform="translate(0,1280) scale(0.8,0.8)"><g transform="" style="fill: rgb(255, 255, 255);">
<g>
	<circle cx="50" cy="50" r="30"/>
</g>
</g></g><g transform="translate(240,1280) scale(0.8,0.8)"><g transform="" style="fill: rgb(255, 255, 255);">
<g>
	<circle cx="50" cy="50" r="30"/>
</g>
</g></g><g transform="translate(480,1280) scale(0.8,0.8)"><g transform="" style="fill: rgb(255, 255, 255);">
<g>
	<circle cx="50" cy="50" r="30"/>
</g>
</g></g><g transform="translate(720,1280) scale(0.8,0.8)"><g transform="" style="fill: rgb(255, 255, 255);">
<g>
	<circle cx="50" cy="50" r="30"/>
</g>
</g></g><g transform="translate(960,1280) scale(0.8,0.8)"><g transform="" style="fill: rgb(255, 255, 255);">
<g>
	<circle cx="50" cy="50" r="30"/>
</g>
</g></g><g transform="translate(1120,1280) scale(0.8,0.8)"><g transform="" style="fill: rgb(255, 255, 255);">
<g>
	<circle cx="50" cy="50" r="30"/>
</g>
</g></g><g transform="translate(1200,1280) scale(0.8,0.8)"><g transform="" style="fill: rgb(255, 255, 255);">
<g>
	<circle cx="50" cy="50" r="30"/>
</g>
</g></g><g transform="translate(1280,1280) scale(0.8,0.8)"><g transform="" style="fill: rgb(255, 255, 255);">
<g>
	<circle cx="50" cy="50" r="30"/>
</g>
</g></g><g transform="translate(1360,1280) scale(0.8,0.8)"><g transform="" style="fill: rgb(255, 255, 255);">
<g>
	<circle cx="50" cy="50" r="30"/>
</g>
</g></g><g transform="translate(1440,1280) scale(0.8,0.8)"><g transform="" style="fill: rgb(255, 255, 255);">
<g>
	<circle cx="50" cy="50" r="30"/>
</g>
</g></g><g transform="translate(1520,1280) scale(0.8,0.8)"><g transform="" style="fill: rgb(255, 255, 255);">
<g>
	<circle cx="50" cy="50" r="30"/>
</g>
</g></g><g transform="translate(1600,1280) scale(0.8,0.8)"><g transform="" style="fill: rgb(255, 255, 255);">
<g>
	<circle cx="50" cy="50" r="30"/>
</g>
</g></g><g transform="translate(1760,1280) scale(0.8,0.8)"><g transform="" style="fill: rgb(255, 255, 255);">
<g>
	<circle cx="50" cy="50" r="30"/>
</g>
</g></g><g transform="translate(640,1360) scale(0.8,0.8)"><g transform="" style="fill: rgb(255, 255, 255);">
<g>
	<circle cx="50" cy="50" r="30"/>
</g>
</g></g><g transform="translate(720,1360) scale(0.8,0.8)"><g transform="" style="fill: rgb(255, 255, 255);">
<g>
	<circle cx="50" cy="50" r="30"/>
</g>
</g></g><g transform="translate(800,1360) scale(0.8,0.8)"><g transform="" style="fill: rgb(255, 255, 255);">
<g>
	<circle cx="50" cy="50" r="30"/>
</g>
</g></g><g transform="translate(1200,1360) scale(0.8,0.8)"><g transform="" style="fill: rgb(255, 255, 255);">
<g>
	<circle cx="50" cy="50" r="30"/>
</g>
</g></g><g transform="translate(1280,1360) scale(0.8,0.8)"><g transform="" style="fill: rgb(255, 255, 255);">
<g>
	<circle cx="50" cy="50" r="30"/>
</g>
</g></g><g transform="translate(1600,1360) scale(0.8,0.8)"><g transform="" style="fill: rgb(255, 255, 255);">
<g>
	<circle cx="50" cy="50" r="30"/>
</g>
</g></g><g transform="translate(1680,1360) scale(0.8,0.8)"><g transform="" style="fill: rgb(255, 255, 255);">
<g>
	<circle cx="50" cy="50" r="30"/>
</g>
</g></g><g transform="translate(1760,1360) scale(0.8,0.8)"><g transform="" style="fill: rgb(255, 255, 255);">
<g>
	<circle cx="50" cy="50" r="30"/>
</g>
</g></g><g transform="translate(880,1440) scale(0.8,0.8)"><g transform="" style="fill: rgb(255, 255, 255);">
<g>
	<circle cx="50" cy="50" r="30"/>
</g>
</g></g><g transform="translate(960,1440) scale(0.8,0.8)"><g transform="" style="fill: rgb(255, 255, 255);">
<g>
	<circle cx="50" cy="50" r="30"/>
</g>
</g></g><g transform="translate(1280,1440) scale(0.8,0.8)"><g transform="" style="fill: rgb(255, 255, 255);">
<g>
	<circle cx="50" cy="50" r="30"/>
</g>
</g></g><g transform="translate(1440,1440) scale(0.8,0.8)"><g transform="" style="fill: rgb(255, 255, 255);">
<g>
	<circle cx="50" cy="50" r="30"/>
</g>
</g></g><g transform="translate(1600,1440) scale(0.8,0.8)"><g transform="" style="fill: rgb(255, 255, 255);">
<g>
	<circle cx="50" cy="50" r="30"/>
</g>
</g></g><g transform="translate(1680,1440) scale(0.8,0.8)"><g transform="" style="fill: rgb(255, 255, 255);">
<g>
	<circle cx="50" cy="50" r="30"/>
</g>
</g></g><g transform="translate(1760,1440) scale(0.8,0.8)"><g transform="" style="fill: rgb(255, 255, 255);">
<g>
	<circle cx="50" cy="50" r="30"/>
</g>
</g></g><g transform="translate(1840,1440) scale(0.8,0.8)"><g transform="" style="fill: rgb(255, 255, 255);">
<g>
	<circle cx="50" cy="50" r="30"/>
</g>
</g></g><g transform="translate(1920,1440) scale(0.8,0.8)"><g transform="" style="fill: rgb(255, 255, 255);">
<g>
	<circle cx="50" cy="50" r="30"/>
</g>
</g></g><g transform="translate(640,1520) scale(0.8,0.8)"><g transform="" style="fill: rgb(255, 255, 255);">
<g>
	<circle cx="50" cy="50" r="30"/>
</g>
</g></g><g transform="translate(800,1520) scale(0.8,0.8)"><g transform="" style="fill: rgb(255, 255, 255);">
<g>
	<circle cx="50" cy="50" r="30"/>
</g>
</g></g><g transform="translate(880,1520) scale(0.8,0.8)"><g transform="" style="fill: rgb(255, 255, 255);">
<g>
	<circle cx="50" cy="50" r="30"/>
</g>
</g></g><g transform="translate(1120,1520) scale(0.8,0.8)"><g transform="" style="fill: rgb(255, 255, 255);">
<g>
	<circle cx="50" cy="50" r="30"/>
</g>
</g></g><g transform="translate(1280,1520) scale(0.8,0.8)"><g transform="" style="fill: rgb(255, 255, 255);">
<g>
	<circle cx="50" cy="50" r="30"/>
</g>
</g></g><g transform="translate(1600,1520) scale(0.8,0.8)"><g transform="" style="fill: rgb(255, 255, 255);">
<g>
	<circle cx="50" cy="50" r="30"/>
</g>
</g></g><g transform="translate(1680,1520) scale(0.8,0.8)"><g transform="" style="fill: rgb(255, 255, 255);">
<g>
	<circle cx="50" cy="50" r="30"/>
</g>
</g></g><g transform="translate(1920,1520) scale(0.8,0.8)"><g transform="" style="fill: rgb(255, 255, 255);">
<g>
	<circle cx="50" cy="50" r="30"/>
</g>
</g></g><g transform="translate(640,1600) scale(0.8,0.8)"><g transform="" style="fill: rgb(255, 255, 255);">
<g>
	<circle cx="50" cy="50" r="30"/>
</g>
</g></g><g transform="translate(800,1600) scale(0.8,0.8)"><g transform="" style="fill: rgb(255, 255, 255);">
<g>
	<circle cx="50" cy="50" r="30"/>
</g>
</g></g><g transform="translate(880,1600) scale(0.8,0.8)"><g transform="" style="fill: rgb(255, 255, 255);">
<g>
	<circle cx="50" cy="50" r="30"/>
</g>
</g></g><g transform="translate(1200,1600) scale(0.8,0.8)"><g transform="" style="fill: rgb(255, 255, 255);">
<g>
	<circle cx="50" cy="50" r="30"/>
</g>
</g></g><g transform="translate(1280,1600) scale(0.8,0.8)"><g transform="" style="fill: rgb(255, 255, 255);">
<g>
	<circle cx="50" cy="50" r="30"/>
</g>
</g></g><g transform="translate(1360,1600) scale(0.8,0.8)"><g transform="" style="fill: rgb(255, 255, 255);">
<g>
	<circle cx="50" cy="50" r="30"/>
</g>
</g></g><g transform="translate(1440,1600) scale(0.8,0.8)"><g transform="" style="fill: rgb(255, 255, 255);">
<g>
	<circle cx="50" cy="50" r="30"/>
</g>
</g></g><g transform="translate(1520,1600) scale(0.8,0.8)"><g transform="" style="fill: rgb(255, 255, 255);">
<g>
	<circle cx="50" cy="50" r="30"/>
</g>
</g></g><g transform="translate(1600,1600) scale(0.8,0.8)"><g transform="" style="fill: rgb(255, 255, 255);">
<g>
	<circle cx="50" cy="50" r="30"/>
</g>
</g></g><g transform="translate(1680,1600) scale(0.8,0.8)"><g transform="" style="fill: rgb(255, 255, 255);">
<g>
	<circle cx="50" cy="50" r="30"/>
</g>
</g></g><g transform="translate(1760,1600) scale(0.8,0.8)"><g transform="" style="fill: rgb(255, 255, 255);">
<g>
	<circle cx="50" cy="50" r="30"/>
</g>
</g></g><g transform="translate(1840,1600) scale(0.8,0.8)"><g transform="" style="fill: rgb(255, 255, 255);">
<g>
	<circle cx="50" cy="50" r="30"/>
</g>
</g></g><g transform="translate(1920,1600) scale(0.8,0.8)"><g transform="" style="fill: rgb(255, 255, 255);">
<g>
	<circle cx="50" cy="50" r="30"/>
</g>
</g></g><g transform="translate(640,1680) scale(0.8,0.8)"><g transform="" style="fill: rgb(255, 255, 255);">
<g>
	<circle cx="50" cy="50" r="30"/>
</g>
</g></g><g transform="translate(720,1680) scale(0.8,0.8)"><g transform="" style="fill: rgb(255, 255, 255);">
<g>
	<circle cx="50" cy="50" r="30"/>
</g>
</g></g><g transform="translate(960,1680) scale(0.8,0.8)"><g transform="" style="fill: rgb(255, 255, 255);">
<g>
	<circle cx="50" cy="50" r="30"/>
</g>
</g></g><g transform="translate(1040,1680) scale(0.8,0.8)"><g transform="" style="fill: rgb(255, 255, 255);">
<g>
	<circle cx="50" cy="50" r="30"/>
</g>
</g></g><g transform="translate(1120,1680) scale(0.8,0.8)"><g transform="" style="fill: rgb(255, 255, 255);">
<g>
	<circle cx="50" cy="50" r="30"/>
</g>
</g></g><g transform="translate(1200,1680) scale(0.8,0.8)"><g transform="" style="fill: rgb(255, 255, 255);">
<g>
	<circle cx="50" cy="50" r="30"/>
</g>
</g></g><g transform="translate(1280,1680) scale(0.8,0.8)"><g transform="" style="fill: rgb(255, 255, 255);">
<g>
	<circle cx="50" cy="50" r="30"/>
</g>
</g></g><g transform="translate(1360,1680) scale(0.8,0.8)"><g transform="" style="fill: rgb(255, 255, 255);">
<g>
	<circle cx="50" cy="50" r="30"/>
</g>
</g></g><g transform="translate(1440,1680) scale(0.8,0.8)"><g transform="" style="fill: rgb(255, 255, 255);">
<g>
	<circle cx="50" cy="50" r="30"/>
</g>
</g></g><g transform="translate(1520,1680) scale(0.8,0.8)"><g transform="" style="fill: rgb(255, 255, 255);">
<g>
	<circle cx="50" cy="50" r="30"/>
</g>
</g></g><g transform="translate(1600,1680) scale(0.8,0.8)"><g transform="" style="fill: rgb(255, 255, 255);">
<g>
	<circle cx="50" cy="50" r="30"/>
</g>
</g></g><g transform="translate(1760,1680) scale(0.8,0.8)"><g transform="" style="fill: rgb(255, 255, 255);">
<g>
	<circle cx="50" cy="50" r="30"/>
</g>
</g></g><g transform="translate(1840,1680) scale(0.8,0.8)"><g transform="" style="fill: rgb(255, 255, 255);">
<g>
	<circle cx="50" cy="50" r="30"/>
</g>
</g></g><g transform="translate(1920,1680) scale(0.8,0.8)"><g transform="" style="fill: rgb(255, 255, 255);">
<g>
	<circle cx="50" cy="50" r="30"/>
</g>
</g></g><g transform="translate(640,1760) scale(0.8,0.8)"><g transform="" style="fill: rgb(255, 255, 255);">
<g>
	<circle cx="50" cy="50" r="30"/>
</g>
</g></g><g transform="translate(1040,1760) scale(0.8,0.8)"><g transform="" style="fill: rgb(255, 255, 255);">
<g>
	<circle cx="50" cy="50" r="30"/>
</g>
</g></g><g transform="translate(1120,1760) scale(0.8,0.8)"><g transform="" style="fill: rgb(255, 255, 255);">
<g>
	<circle cx="50" cy="50" r="30"/>
</g>
</g></g><g transform="translate(1520,1760) scale(0.8,0.8)"><g transform="" style="fill: rgb(255, 255, 255);">
<g>
	<circle cx="50" cy="50" r="30"/>
</g>
</g></g><g transform="translate(1760,1760) scale(0.8,0.8)"><g transform="" style="fill: rgb(255, 255, 255);">
<g>
	<circle cx="50" cy="50" r="30"/>
</g>
</g></g><g transform="translate(1920,1760) scale(0.8,0.8)"><g transform="" style="fill: rgb(255, 255, 255);">
<g>
	<circle cx="50" cy="50" r="30"/>
</g>
</g></g><g transform="translate(720,1840) scale(0.8,0.8)"><g transform="" style="fill: rgb(255, 255, 255);">
<g>
	<circle cx="50" cy="50" r="30"/>
</g>
</g></g><g transform="translate(800,1840) scale(0.8,0.8)"><g transform="" style="fill: rgb(255, 255, 255);">
<g>
	<circle cx="50" cy="50" r="30"/>
</g>
</g></g><g transform="translate(960,1840) scale(0.8,0.8)"><g transform="" style="fill: rgb(255, 255, 255);">
<g>
	<circle cx="50" cy="50" r="30"/>
</g>
</g></g><g transform="translate(1040,1840) scale(0.8,0.8)"><g transform="" style="fill: rgb(255, 255, 255);">
<g>
	<circle cx="50" cy="50" r="30"/>
</g>
</g></g><g transform="translate(1280,1840) scale(0.8,0.8)"><g transform="" style="fill: rgb(255, 255, 255);">
<g>
	<circle cx="50" cy="50" r="30"/>
</g>
</g></g><g transform="translate(1360,1840) scale(0.8,0.8)"><g transform="" style="fill: rgb(255, 255, 255);">
<g>
	<circle cx="50" cy="50" r="30"/>
</g>
</g></g><g transform="translate(1520,1840) scale(0.8,0.8)"><g transform="" style="fill: rgb(255, 255, 255);">
<g>
	<circle cx="50" cy="50" r="30"/>
</g>
</g></g><g transform="translate(1600,1840) scale(0.8,0.8)"><g transform="" style="fill: rgb(255, 255, 255);">
<g>
	<circle cx="50" cy="50" r="30"/>
</g>
</g></g><g transform="translate(1680,1840) scale(0.8,0.8)"><g transform="" style="fill: rgb(255, 255, 255);">
<g>
	<circle cx="50" cy="50" r="30"/>
</g>
</g></g><g transform="translate(1920,1840) scale(0.8,0.8)"><g transform="" style="fill: rgb(255, 255, 255);">
<g>
	<circle cx="50" cy="50" r="30"/>
</g>
</g></g><g transform="translate(640,1920) scale(0.8,0.8)"><g transform="" style="fill: rgb(255, 255, 255);">
<g>
	<circle cx="50" cy="50" r="30"/>
</g>
</g></g><g transform="translate(720,1920) scale(0.8,0.8)"><g transform="" style="fill: rgb(255, 255, 255);">
<g>
	<circle cx="50" cy="50" r="30"/>
</g>
</g></g><g transform="translate(960,1920) scale(0.8,0.8)"><g transform="" style="fill: rgb(255, 255, 255);">
<g>
	<circle cx="50" cy="50" r="30"/>
</g>
</g></g><g transform="translate(1120,1920) scale(0.8,0.8)"><g transform="" style="fill: rgb(255, 255, 255);">
<g>
	<circle cx="50" cy="50" r="30"/>
</g>
</g></g><g transform="translate(1360,1920) scale(0.8,0.8)"><g transform="" style="fill: rgb(255, 255, 255);">
<g>
	<circle cx="50" cy="50" r="30"/>
</g>
</g></g><g transform="translate(1520,1920) scale(0.8,0.8)"><g transform="" style="fill: rgb(255, 255, 255);">
<g>
	<circle cx="50" cy="50" r="30"/>
</g>
</g></g><g transform="translate(1600,1920) scale(0.8,0.8)"><g transform="" style="fill: rgb(255, 255, 255);">
<g>
	<circle cx="50" cy="50" r="30"/>
</g>
</g></g><g transform="translate(1680,1920) scale(0.8,0.8)"><g transform="" style="fill: rgb(255, 255, 255);">
<g>
	<circle cx="50" cy="50" r="30"/>
</g>
</g></g><g transform="translate(1760,1920) scale(0.8,0.8)"><g transform="" style="fill: rgb(255, 255, 255);">
<g>
	<circle cx="50" cy="50" r="30"/>
</g>
</g></g><g transform="translate(1840,1920) scale(0.8,0.8)"><g transform="" style="fill: rgb(255, 255, 255);">
<g>
	<circle cx="50" cy="50" r="30"/>
</g>
</g></g><g transform="translate(1920,1920) scale(0.8,0.8)"><g transform="" style="fill: rgb(255, 255, 255);">
<g>
	<circle cx="50" cy="50" r="30"/>
</g>
</g></g></g></mask></defs></g><rect x="0" y="0" width="2000" height="2000" fill="url(#grad)" mask="url(#gmask)" /><g transform="translate(0,0) scale(5.6, 5.6)"><g transform=" translate(0,100) scale(1,-1) " style="fill: rgb(254, 108, 0);">
<g>
	<path style="fill:none;" d="M33.78,85H85V15H15.004l0.016,50.855C15.02,76.414,23.436,85,33.78,85z"/>
	<path d="M100,100V65.859V34.141C100,25.65,100,0,100,0S76.46,0,66.25,0H0l0.02,65.859C0.02,84.68,15.16,100,33.78,100h32.47H100z
		 M85,85H33.78c-10.344,0-18.76-8.586-18.76-19.145L15.004,15H85V85z"/>
</g>
</g></g><g transform="translate(1440,0) scale(5.6, 5.6)"><g transform=" translate(0,100) scale(1,-1)  translate(100, 0) scale(-1,1) " style="fill: rgb(254, 108, 0);">
<g>
	<path style="fill:none;" d="M33.78,85H85V15H15.004l0.016,50.855C15.02,76.414,23.436,85,33.78,85z"/>
	<path d="M100,100V65.859V34.141C100,25.65,100,0,100,0S76.46,0,66.25,0H0l0.02,65.859C0.02,84.68,15.16,100,33.78,100h32.47H100z
		 M85,85H33.78c-10.344,0-18.76-8.586-18.76-19.145L15.004,15H85V85z"/>
</g>
</g></g><g transform="translate(0,1440) scale(5.6, 5.6)"><g transform="" style="fill: rgb(254, 108, 0);">
<g>
	<path style="fill:none;" d="M33.78,85H85V15H15.004l0.016,50.855C15.02,76.414,23.436,85,33.78,85z"/>
	<path d="M100,100V65.859V34.141C100,25.65,100,0,100,0S76.46,0,66.25,0H0l0.02,65.859C0.02,84.68,15.16,100,33.78,100h32.47H100z
		 M85,85H33.78c-10.344,0-18.76-8.586-18.76-19.145L15.004,15H85V85z"/>
</g>
</g></g><g transform="translate(160,160) scale(2.4, 2.4)"><g transform=" translate(0,100) scale(1,-1) " style="fill: rgb(0, 0, 0);">
<g>
</g>
<path d="M72.744-0.021H27.23c-2.341,0-4.612,0.297-6.771,0.875C15.679,2.11,11.418,4.648,8.04,8.09
	c-0.617,0.621-1.206,1.284-1.752,1.96c-3.883,4.767-6.21,10.903-6.21,17.561L0.05,99.979h72.694
	c14.971,0,27.138-12.397,27.138-27.63V27.625v-0.014l0.168-27.617C100.05-0.006,82.107-0.021,72.744-0.021z"/>
</g></g><g transform="translate(1600,160) scale(2.4, 2.4)"><g transform="" style="fill: rgb(0, 0, 0);">
<g>
</g>
<path d="M72.744-0.021H27.23c-2.341,0-4.612,0.297-6.771,0.875C15.679,2.11,11.418,4.648,8.04,8.09
	c-0.617,0.621-1.206,1.284-1.752,1.96c-3.883,4.767-6.21,10.903-6.21,17.561L0.05,99.979h72.694
	c14.971,0,27.138-12.397,27.138-27.63V27.625v-0.014l0.168-27.617C100.05-0.006,82.107-0.021,72.744-0.021z"/>
</g></g><g transform="translate(160,1600) scale(2.4, 2.4)"><g transform="" style="fill: rgb(0, 0, 0);">
<g>
</g>
<path d="M72.744-0.021H27.23c-2.341,0-4.612,0.297-6.771,0.875C15.679,2.11,11.418,4.648,8.04,8.09
	c-0.617,0.621-1.206,1.284-1.752,1.96c-3.883,4.767-6.21,10.903-6.21,17.561L0.05,99.979h72.694
	c14.971,0,27.138-12.397,27.138-27.63V27.625v-0.014l0.168-27.617C100.05-0.006,82.107-0.021,72.744-0.021z"/>
</g></g></g></svg>