<?xml version="1.0" encoding="utf-8"?>
<!DOCTYPE svg PUBLIC "-//W3C//DTD SVG 1.1//EN" "http://www.w3.org/Graphics/SVG/1.1/DTD/svg11.dtd">
<svg version="1.1" id="Layer_1" xmlns="http://www.w3.org/2000/svg" xmlns:xlink="http://www.w3.org/1999/xlink" x="0px" y="0px"
width="232px" height="232px" viewBox="0 0 232 232" enable-background="new 0 0 232 232" xml:space="preserve">
<rect x="0" y="0" width="232" height="232" fill="rgb(238,239,241)" /><g transform="translate(16,16)"><g><defs>
    <radialGradient id="grad">
    <stop offset="5%" stop-color="rgb(0,0,0)" />
    <stop offset="95%" stop-color="rgb(254,108,0)" />
    </radialGradient>
<mask id="gmask"><g>
<g transform="translate(88,0) scale(0.08,0.08)"><g transform="" style="fill: rgb(255, 255, 255);">
<g>
	<circle cx="50" cy="50" r="30"/>
</g>
</g></g><g transform="translate(104,0) scale(0.08,0.08)"><g transform="" style="fill: rgb(255, 255, 255);">
<g>
	<circle cx="50" cy="50" r="30"/>
</g>
</g></g><g transform="translate(72,8) scale(0.08,0.08)"><g transform="" style="fill: rgb(255, 255, 255);">
<g>
	<circle cx="50" cy="50" r="30"/>
</g>
</g></g><g transform="translate(96,8) scale(0.08,0.08)"><g transform="" style="fill: rgb(255, 255, 255);">
<g>
	<circle cx="50" cy="50" r="30"/>
</g>
</g></g><g transform="translate(104,8) scale(0.08,0.08)"><g transform="" style="fill: rgb(255, 255, 255);">
<g>
	<circle cx="50" cy="50" r="30"/>
</g>
</g></g><g transform="translate(112,8) scale(0.08,0.08)"><g transform="" style="fill: rgb(255, 255, 255);">
<g>
	<circle cx="50" cy="50" r="30"/>
</g>
</g></g><g transform="translate(120,8) scale(0.08,0.08)"><g transform="" style="fill: rgb(255, 255, 255);">
<g>
	<circle cx="50" cy="50" r="30"/>
</g>
</g></g><g transform="translate(128,8) scale(0.08,0.08)"><g transform="" style="fill: rgb(255, 255, 255);">
<g>
	<circle cx="50" cy="50" r="30"/>
</g>
</g></g><g transform="translate(64,16) scale(0.08,0.08)"><g transform="" style="fill: rgb(255, 255, 255);">
<g>
	<circle cx="50" cy="50" r="30"/>
</g>
</g></g><g transform="translate(72,16) scale(0.08,0.08)"><g transform="" style="fill: rgb(255, 255, 255);">
<g>
	<circle cx="50" cy="50" r="30"/>
</g>
</g></g><g transform="translate(88,16) scale(0.08,0.08)"><g transform="" style="fill: rgb(255, 255, 255);">
<g>
	<circle cx="50" cy="50" r="30"/>
</g>
</g></g><g transform="translate(120,16) scale(0.08,0.08)"><g transform="" style="fill: rgb(255, 255, 255);">
<g>
	<circle cx="50" cy="50" r="30"/>
</g>
</g></g><g transform="translate(128,16) scale(0.08,0.08)"><g transform="" style="fill: rgb(255, 255, 255);">
<g>
	<circle cx="50" cy="50" r="30"/>
</g>
</g></g><g transform="translate(64,24) scale(0.08,0.08)"><g transform="" style="fill: rgb(255, 255, 255);">
<g>
	<circle cx="50" cy="50" r="30"/>
</g>
</g></g><g transform="translate(80,24) scale(0.08,0.08)"><g transform="" style="fill: rgb(255, 255, 255);">
<g>
	<circle cx="50" cy="50" r="30"/>
</g>
</g></g><g transform="translate(96,24) scale(0.08,0.08)"><g transform="" style="fill: rgb(255, 255, 255);">
<g>
	<circle cx="50" cy="50" r="30"/>
</g>
</g></g><g transform="translate(104,24) scale(0.08,0.08)"><g transform="" style="fill: rgb(255, 255, 255);">
<g>
	<circle cx="50" cy="50" r="30"/>
</g>
</g></g><g transform="translate(112,24) scale(0.08,0.08)"><g transform="" style="fill: rgb(255, 255, 255);">
<g>
	<circle cx="50" cy="50" r="30"/>
</g>
</g></g><g transform="translate(120,24) scale(0.08,0.08)"><g transform="" style="fill: rgb(255, 255, 255);">
<g>
	<circle cx="50" cy="50" r="30"/>
</g>
</g></g><g transform="translate(64,32) scale(0.08,0.08)"><g transform="" style="fill: rgb(255, 255, 255);">
<g>
	<circle cx="50" cy="50" r="30"/>
</g>
</g></g><g transform="translate(72,32) scale(0.08,0.08)"><g transform="" style="fill: rgb(255, 255, 255);">
<g>
	<circle cx="50" cy="50" r="30"/>
</g>
</g></g><g transform="translate(88,32) scale(0.08,0.08)"><g transform="" style="fill: rgb(255, 255, 255);">
<g>
	<circle cx="50" cy="50" r="30"/>
</g>
</g></g><g transform="translate(104,32) scale(0.08,0.08)"><g transform="" style="fill: rgb(255, 255, 255);">
<g>
	<circle cx="50" cy="50" r="30"/>
</g>
</g></g><g transform="translate(128,32) scale(0.08,0.08)"><g transform="" style="fill: rgb(255, 255, 255);">
<g>
	<circle cx="50" cy="50" r="30"/>
</g>
</g></g><g transform="translate(64,40) scale(0.08,0.08)"><g transform="" style="fill: rgb(255, 255, 255);">
<g>
	<circle cx="50" cy="50" r="30"/>
</g>
</g></g><g transform="translate(72,40) scale(0.08,0.08)"><g transform="" style="fill: rgb(255, 255, 255);">
<g>
	<circle cx="50" cy="50" r="30"/>
</g>
</g></g><g transform="translate(88,40) scale(0.08,0.08)"><g transform="" style="fill: rgb(255, 255, 255);">
<g>
	<circle cx="50" cy="50" r="30"/>
</g>
</g></g><g transform="translate(96,40) scale(0.08,0.08)"><g transform="" style="fill: rgb(255, 255, 255);">
<g>
	<circle cx="50" cy="50" r="30"/>
</g>
</g></g><g transform="translate(104,40) scale(0.08,0.08)"><g transform="" style="fill: rgb(255, 255, 255);">
<g>
	<circle cx="50" cy="50" r="30"/>
</g>
</g></g><g transform="translate(112,40) scale(0.08,0.08)"><g transform="" style="fill: rgb(255, 255, 255);">
<g>
	<circle cx="50" cy="50" r="30"/>
</g>
</g></g><g transform="translate(120,40) scale(0.08,0.08)"><g transform="" style="fill: rgb(255, 255, 255);">
<g>
	<circle cx="50" cy="50" r="30"/>
</g>
</g></g><g transform="translate(64,48) scale(0.08,0.08)"><g transform="" style="fill: rgb(255, 255, 255);">
<g>
	<circle cx="50" cy="50" r="30"/>
</g>
</g></g><g transform="translate(80,48) scale(0.08,0.08)"><g transform="" style="fill: rgb(255, 255, 255);">
<g>
	<circle cx="50" cy="50" r="30"/>
</g>
</g></g><g transform="translate(96,48) scale(0.08,0.08)"><g transform="" style="fill: rgb(255, 255, 255);">
<g>
	<circle cx="50" cy="50" r="30"/>
</g>
</g></g><g transform="translate(112,48) scale(0.08,0.08)"><g transform="" style="fill: rgb(255, 255, 255);">
<g>
	<circle cx="50" cy="50" r="30"/>
</g>
</g></g><g transform="translate(128,48) scale(0.08,0.08)"><g transform="" style="fill: rgb(255, 255, 255);">
<g>
	<circle cx="50" cy="50" r="30"/>
</g>
</g></g><g transform="translate(64,56) scale(0.08,0.08)"><g transform="" style="fill: rgb(255, 255, 255);">
<g>
	<circle cx="50" cy="50" r="30"/>
</g>
</g></g><g transform="translate(96,56) scale(0.08,0.08)"><g transform="" style="fill: rgb(255, 255, 255);">
<g>
	<circle cx="50" cy="50" r="30"/>
</g>
</g></g><g transform="translate(120,56) scale(0.08,0.08)"><g transform="" style="fill: rgb(255, 255, 255);">
<g>
	<circle cx="50" cy="50" r="30"/>
</g>
</g></g><g transform="translate(128,56) scale(0.08,0.08)"><g transform="" style="fill: rgb(255, 255, 255);">
<g>
	<circle cx="50" cy="50" r="30"/>
</g>
</g></g><g transform="translate(0,64) scale(0.08,0.08)"><g transform="" style="fill: rgb(255, 255, 255);">
<g>
	<circle cx="50" cy="50" r="30"/>
</g>
</g></g><g transform="translate(16,64) scale(0.08,0.08)"><g transform="" style="fill: rgb(255, 255, 255);">
<g>
	<circle cx="50" cy="50" r="30"/>
</g>
</g></g><g transform="translate(24,64) scale(0.08,0.08)"><g transform="" style="fill: rgb(255, 255, 255);">
<g>
	<circle cx="50" cy="50" r="30"/>
</g>
</g></g><g transform="translate(32,64) scale(0.08,0.08)"><g transform="" style="fill: rgb(255, 255, 255);">
<g>
	<circle cx="50" cy="50" r="30"/>
</g>
</g></g><g transform="translate(40,64) scale(0.08,0.08)"><g transform="" style="fill: rgb(255, 255, 255);">
<g>
	<circle cx="50" cy="50" r="30"/>
</g>
</g></g><g transform="translate(48,64) scale(0.08,0.08)"><g transform="" style="fill: rgb(255, 255, 255);">
<g>
	<circle cx="50" cy="50" r="30"/>
</g>
</g></g><g transform="translate(72,64) scale(0.08,0.08)"><g transform="" style="fill: rgb(255, 255, 255);">
<g>
	<circle cx="50" cy="50" r="30"/>
</g>
</g></g><g transform="translate(96,64) scale(0.08,0.08)"><g transform="" style="fill: rgb(255, 255, 255);">
<g>
	<circle cx="50" cy="50" r="30"/>
</g>
</g></g><g transform="translate(104,64) scale(0.08,0.08)"><g transform="" style="fill: rgb(255, 255, 255);">
<g>
	<circle cx="50" cy="50" r="30"/>
</g>
</g></g><g transform="translate(112,64) scale(0.08,0.08)"><g transform="" style="fill: rgb(255, 255, 255);">
<g>
	<circle cx="50" cy="50" r="30"/>
</g>
</g></g><g transform="translate(144,64) scale(0.08,0.08)"><g transform="" style="fill: rgb(255, 255, 255);">
<g>
	<circle cx="50" cy="50" r="30"/>
</g>
</g></g><g transform="translate(152,64) scale(0.08,0.08)"><g transform="" style="fill: rgb(255, 255, 255);">
<g>
	<circle cx="50" cy="50" r="30"/>
</g>
</g></g><g transform="translate(160,64) scale(0.08,0.08)"><g transform="" style="fill: rgb(255, 255, 255);">
<g>
	<circle cx="50" cy="50" r="30"/>
</g>
</g></g><g transform="translate(168,64) scale(0.08,0.08)"><g transform="" style="fill: rgb(255, 255, 255);">
<g>
	<circle cx="50" cy="50" r="30"/>
</g>
</g></g><g transform="translate(176,64) scale(0.08,0.08)"><g transform="" style="fill: rgb(255, 255, 255);">
<g>
	<circle cx="50" cy="50" r="30"/>
</g>
</g></g><g transform="translate(0,72) scale(0.08,0.08)"><g transform="" style="fill: rgb(255, 255, 255);">
<g>
	<circle cx="50" cy="50" r="30"/>
</g>
</g></g><g transform="translate(8,72) scale(0.08,0.08)"><g transform="" style="fill: rgb(255, 255, 255);">
<g>
	<circle cx="50" cy="50" r="30"/>
</g>
</g></g><g transform="translate(16,72) scale(0.08,0.08)"><g transform="" style="fill: rgb(255, 255, 255);">
<g>
	<circle cx="50" cy="50" r="30"/>
</g>
</g></g><g transform="translate(24,72) scale(0.08,0.08)"><g transform="" style="fill: rgb(255, 255, 255);">
<g>
	<circle cx="50" cy="50" r="30"/>
</g>
</g></g><g transform="translate(32,72) scale(0.08,0.08)"><g transform="" style="fill: rgb(255, 255, 255);">
<g>
	<circle cx="50" cy="50" r="30"/>
</g>
</g></g><g transform="translate(40,72) scale(0.08,0.08)"><g transform="" style="fill: rgb(255, 255, 255);">
<g>
	<circle cx="50" cy="50" r="30"/>
</g>
</g></g><g transform="translate(72,72) scale(0.08,0.08)"><g transform="" style="fill: rgb(255, 255, 255);">
<g>
	<circle cx="50" cy="50" r="30"/>
</g>
</g></g><g transform="translate(104,72) scale(0.08,0.08)"><g transform="" style="fill: rgb(255, 255, 255);">
<g>
	<circle cx="50" cy="50" r="30"/>
</g>
</g></g><g transform="translate(128,72) scale(0.08,0.08)"><g transform="" style="fill: rgb(255, 255, 255);">
<g>
	<circle cx="50" cy="50" r="30"/>
</g>
</g></g><g transform="translate(136,72) scale(0.08,0.08)"><g transform="" style="fill: rgb(255, 255, 255);">
<g>
	<circle cx="50" cy="50" r="30"/>
</g>
</g></g><g transform="translate(152,72) scale(0.08,0.08)"><g transform="" style="fill: rgb(255, 255, 255);">
<g>
	<circle cx="50" cy="50" r="30"/>
</g>
</g></g><g transform="translate(184,72) scale(0.08,0.08)"><g transform="" style="fill: rgb(255, 255, 255);">
<g>
	<circle cx="50" cy="50" r="30"/>
</g>
</g></g><g transform="translate(0,80) scale(0.08,0.08)"><g transform="" style="fill: rgb(255, 255, 255);">
<g>
	<circle cx="50" cy="50" r="30"/>
</g>
</g></g><g transform="translate(8,80) scale(0.08,0.08)"><g transform="" style="fill: rgb(255, 255, 255);">
<g>
	<circle cx="50" cy="50" r="30"/>
</g>
</g></g><g transform="translate(40,80) scale(0.08,0.08)"><g transform="" style="fill: rgb(255, 255, 255);">
<g>
	<circle cx="50" cy="50" r="30"/>
</g>
</g></g><g transform="translate(48,80) scale(0.08,0.08)"><g transform="" style="fill: rgb(255, 255, 255);">
<g>
	<circle cx="50" cy="50" r="30"/>
</g>
</g></g><g transform="translate(72,80) scale(0.08,0.08)"><g transform="" style="fill: rgb(255, 255, 255);">
<g>
	<circle cx="50" cy="50" r="30"/>
</g>
</g></g><g transform="translate(104,80) scale(0.08,0.08)"><g transform="" style="fill: rgb(255, 255, 255);">
<g>
	<circle cx="50" cy="50" r="30"/>
</g>
</g></g><g transform="translate(112,80) scale(0.08,0.08)"><g transform="" style="fill: rgb(255, 255, 255);">
<g>
	<circle cx="50" cy="50" r="30"/>
</g>
</g></g><g transform="translate(120,80) scale(0.08,0.08)"><g transform="" style="fill: rgb(255, 255, 255);">
<g>
	<circle cx="50" cy="50" r="30"/>
</g>
</g></g><g transform="translate(136,80) scale(0.08,0.08)"><g transform="" style="fill: rgb(255, 255, 255);">
<g>
	<circle cx="50" cy="50" r="30"/>
</g>
</g></g><g transform="translate(144,80) scale(0.08,0.08)"><g transform="" style="fill: rgb(255, 255, 255);">
<g>
	<circle cx="50" cy="50" r="30"/>
</g>
</g></g><g transform="translate(152,80) scale(0.08,0.08)"><g transform="" style="fill: rgb(255, 255, 255);">
<g>
	<circle cx="50" cy="50" r="30"/>
</g>
</g></g><g transform="translate(160,80) scale(0.08,0.08)"><g transform="" style="fill: rgb(255, 255, 255);">
<g>
	<circle cx="50" cy="50" r="30"/>
</g>
</g></g><g transform="translate(168,80) scale(0.08,0.08)"><g transform="" style="fill: rgb(255, 255, 255);">
<g>
	<circle cx="50" cy="50" r="30"/>
</g>
</g></g><g transform="translate(184,80) scale(0.08,0.08)"><g transform="" style="fill: rgb(255, 255, 255);">
<g>
	<circle cx="50" cy="50" r="30"/>
</g>
</g></g><g transform="translate(192,80) scale(0.08,0.08)"><g transform="" style="fill: rgb(255, 255, 255);">
<g>
	<circle cx="50" cy="50" r="30"/>
</g>
</g></g><g transform="translate(8,88) scale(0.08,0.08)"><g transform="" style="fill: rgb(255, 255, 255);">
<g>
	<circle cx="50" cy="50" r="30"/>
</g>
</g></g><g transform="translate(16,88) scale(0.08,0.08)"><g transform="" style="fill: rgb(255, 255, 255);">
<g>
	<circle cx="50" cy="50" r="30"/>
</g>
</g></g><g transform="translate(24,88) scale(0.08,0.08)"><g transform="" style="fill: rgb(255, 255, 255);">
<g>
	<circle cx="50" cy="50" r="30"/>
</g>
</g></g><g transform="translate(80,88) scale(0.08,0.08)"><g transform="" style="fill: rgb(255, 255, 255);">
<g>
	<circle cx="50" cy="50" r="30"/>
</g>
</g></g><g transform="translate(88,88) scale(0.08,0.08)"><g transform="" style="fill: rgb(255, 255, 255);">
<g>
	<circle cx="50" cy="50" r="30"/>
</g>
</g></g><g transform="translate(112,88) scale(0.08,0.08)"><g transform="" style="fill: rgb(255, 255, 255);">
<g>
	<circle cx="50" cy="50" r="30"/>
</g>
</g></g><g transform="translate(120,88) scale(0.08,0.08)"><g transform="" style="fill: rgb(255, 255, 255);">
<g>
	<circle cx="50" cy="50" r="30"/>
</g>
</g></g><g transform="translate(128,88) scale(0.08,0.08)"><g transform="" style="fill: rgb(255, 255, 255);">
<g>
	<circle cx="50" cy="50" r="30"/>
</g>
</g></g><g transform="translate(136,88) scale(0.08,0.08)"><g transform="" style="fill: rgb(255, 255, 255);">
<g>
	<circle cx="50" cy="50" r="30"/>
</g>
</g></g><g transform="translate(152,88) scale(0.08,0.08)"><g transform="" style="fill: rgb(255, 255, 255);">
<g>
	<circle cx="50" cy="50" r="30"/>
</g>
</g></g><g transform="translate(192,88) scale(0.08,0.08)"><g transform="" style="fill: rgb(255, 255, 255);">
<g>
	<circle cx="50" cy="50" r="30"/>
</g>
</g></g><g transform="translate(8,96) scale(0.08,0.08)"><g transform="" style="fill: rgb(255, 255, 255);">
<g>
	<circle cx="50" cy="50" r="30"/>
</g>
</g></g><g transform="translate(32,96) scale(0.08,0.08)"><g transform="" style="fill: rgb(255, 255, 255);">
<g>
	<circle cx="50" cy="50" r="30"/>
</g>
</g></g><g transform="translate(40,96) scale(0.08,0.08)"><g transform="" style="fill: rgb(255, 255, 255);">
<g>
	<circle cx="50" cy="50" r="30"/>
</g>
</g></g><g transform="translate(48,96) scale(0.08,0.08)"><g transform="" style="fill: rgb(255, 255, 255);">
<g>
	<circle cx="50" cy="50" r="30"/>
</g>
</g></g><g transform="translate(56,96) scale(0.08,0.08)"><g transform="" style="fill: rgb(255, 255, 255);">
<g>
	<circle cx="50" cy="50" r="30"/>
</g>
</g></g><g transform="translate(64,96) scale(0.08,0.08)"><g transform="" style="fill: rgb(255, 255, 255);">
<g>
	<circle cx="50" cy="50" r="30"/>
</g>
</g></g><g transform="translate(72,96) scale(0.08,0.08)"><g transform="" style="fill: rgb(255, 255, 255);">
<g>
	<circle cx="50" cy="50" r="30"/>
</g>
</g></g><g transform="translate(80,96) scale(0.08,0.08)"><g transform="" style="fill: rgb(255, 255, 255);">
<g>
	<circle cx="50" cy="50" r="30"/>
</g>
</g></g><g transform="translate(88,96) scale(0.08,0.08)"><g transform="" style="fill: rgb(255, 255, 255);">
<g>
	<circle cx="50" cy="50" r="30"/>
</g>
</g></g><g transform="translate(144,96) scale(0.08,0.08)"><g transform="" style="fill: rgb(255, 255, 255);">
<g>
	<circle cx="50" cy="50" r="30"/>
</g>
</g></g><g transform="translate(152,96) scale(0.08,0.08)"><g transform="" style="fill: rgb(255, 255, 255);">
<g>
	<circle cx="50" cy="50" r="30"/>
</g>
</g></g><g transform="translate(160,96) scale(0.08,0.08)"><g transform="" style="fill: rgb(255, 255, 255);">
<g>
	<circle cx="50" cy="50" r="30"/>
</g>
</g></g><g transform="translate(176,96) scale(0.08,0.08)"><g transform="" style="fill: rgb(255, 255, 255);">
<g>
	<circle cx="50" cy="50" r="30"/>
</g>
</g></g><g transform="translate(184,96) scale(0.08,0.08)"><g transform="" style="fill: rgb(255, 255, 255);">
<g>
	<circle cx="50" cy="50" r="30"/>
</g>
</g></g><g transform="translate(192,96) scale(0.08,0.08)"><g transform="" style="fill: rgb(255, 255, 255);">
<g>
	<circle cx="50" cy="50" r="30"/>
</g>
</g></g><g transform="translate(0,104) scale(0.08,0.08)"><g transform="" style="fill: rgb(255, 255, 255);">
<g>
	<circle cx="50" cy="50" r="30"/>
</g>
</g></g><g transform="translate(8,104) scale(0.08,0.08)"><g transform="" style="fill: rgb(255, 255, 255);">
<g>
	<circle cx="50" cy="50" r="30"/>
</g>
</g></g><g transform="translate(24,104) scale(0.08,0.08)"><g transform="" style="fill: rgb(255, 255, 255);">
<g>
	<circle cx="50" cy="50" r="30"/>
</g>
</g></g><g transform="translate(56,104) scale(0.08,0.08)"><g transform="" style="fill: rgb(255, 255, 255);">
<g>
	<circle cx="50" cy="50" r="30"/>
</g>
</g></g><g transform="translate(72,104) scale(0.08,0.08)"><g transform="" style="fill: rgb(255, 255, 255);">
<g>
	<circle cx="50" cy="50" r="30"/>
</g>
</g></g><g transform="translate(96,104) scale(0.08,0.08)"><g transform="" style="fill: rgb(255, 255, 255);">
<g>
	<circle cx="50" cy="50" r="30"/>
</g>
</g></g><g transform="translate(104,104) scale(0.08,0.08)"><g transform="" style="fill: rgb(255, 255, 255);">
<g>
	<circle cx="50" cy="50" r="30"/>
</g>
</g></g><g transform="translate(128,104) scale(0.08,0.08)"><g transform="" style="fill: rgb(255, 255, 255);">
<g>
	<circle cx="50" cy="50" r="30"/>
</g>
</g></g><g transform="translate(152,104) scale(0.08,0.08)"><g transform="" style="fill: rgb(255, 255, 255);">
<g>
	<circle cx="50" cy="50" r="30"/>
</g>
</g></g><g transform="translate(168,104) scale(0.08,0.08)"><g transform="" style="fill: rgb(255, 255, 255);">
<g>
	<circle cx="50" cy="50" r="30"/>
</g>
</g></g><g transform="translate(184,104) scale(0.08,0.08)"><g transform="" style="fill: rgb(255, 255, 255);">
<g>
	<circle cx="50" cy="50" r="30"/>
</g>
</g></g><g transform="translate(0,112) scale(0.08,0.08)"><g transform="" style="fill: rgb(255, 255, 255);">
<g>
	<circle cx="50" cy="50" r="30"/>
</g>
</g></g><g transform="translate(48,112) scale(0.08,0.08)"><g transform="" style="fill: rgb(255, 255, 255);">
<g>
	<circle cx="50" cy="50" r="30"/>
</g>
</g></g><g transform="translate(56,112) scale(0.08,0.08)"><g transform="" style="fill: rgb(255, 255, 255);">
<g>
	<circle cx="50" cy="50" r="30"/>
</g>
</g></g><g transform="translate(64,112) scale(0.08,0.08)"><g transform="" style="fill: rgb(255, 255, 255);">
<g>
	<circle cx="50" cy="50" r="30"/>
</g>
</g></g><g transform="translate(104,112) scale(0.08,0.08)"><g transform="" style="fill: rgb(255, 255, 255);">
<g>
	<circle cx="50" cy="50" r="30"/>
</g>
</g></g><g transform="translate(112,112) scale(0.08,0.08)"><g transform="" style="fill: rgb(255, 255, 255);">
<g>
	<circle cx="50" cy="50" r="30"/>
</g>
</g></g><g transform="translate(120,112) scale(0.08,0.08)"><g transform="" style="fill: rgb(255, 255, 255);">
<g>
	<circle cx="50" cy="50" r="30"/>
</g>
</g></g><g transform="translate(128,112) scale(0.08,0.08)"><g transform="" style="fill: rgb(255, 255, 255);">
<g>
	<circle cx="50" cy="50" r="30"/>
</g>
</g></g><g transform="translate(136,112) scale(0.08,0.08)"><g transform="" style="fill: rgb(255, 255, 255);">
<g>
	<circle cx="50" cy="50" r="30"/>
</g>
</g></g><g transform="translate(152,112) scale(0.08,0.08)"><g transform="" style="fill: rgb(255, 255, 255);">
<g>
	<circle cx="50" cy="50" r="30"/>
</g>
</g></g><g transform="translate(160,112) scale(0.08,0.08)"><g transform="" style="fill: rgb(255, 255, 255);">
<g>
	<circle cx="50" cy="50" r="30"/>
</g>
</g></g><g transform="translate(168,112) scale(0.08,0.08)"><g transform="" style="fill: rgb(255, 255, 255);">
<g>
	<circle cx="50" cy="50" r="30"/>
</g>
</g></g><g transform="translate(184,112) scale(0.08,0.08)"><g transform="" style="fill: rgb(255, 255, 255);">
<g>
	<circle cx="50" cy="50" r="30"/>
</g>
</g></g><g transform="translate(192,112) scale(0.08,0.08)"><g transform="" style="fill: rgb(255, 255, 255);">
<g>
	<circle cx="50" cy="50" r="30"/>
</g>
</g></g><g transform="translate(0,120) scale(0.08,0.08)"><g transform="" style="fill: rgb(255, 255, 255);">
<g>
	<circle cx="50" cy="50" r="30"/>
</g>
</g></g><g transform="translate(16,120) scale(0.08,0.08)"><g transform="" style="fill: rgb(255, 255, 255);">
<g>
	<circle cx="50" cy="50" r="30"/>
</g>
</g></g><g transform="translate(24,120) scale(0.08,0.08)"><g transform="" style="fill: rgb(255, 255, 255);">
<g>
	<circle cx="50" cy="50" r="30"/>
</g>
</g></g><g transform="translate(32,120) scale(0.08,0.08)"><g transform="" style="fill: rgb(255, 255, 255);">
<g>
	<circle cx="50" cy="50" r="30"/>
</g>
</g></g><g transform="translate(64,120) scale(0.08,0.08)"><g transform="" style="fill: rgb(255, 255, 255);">
<g>
	<circle cx="50" cy="50" r="30"/>
</g>
</g></g><g transform="translate(72,120) scale(0.08,0.08)"><g transform="" style="fill: rgb(255, 255, 255);">
<g>
	<circle cx="50" cy="50" r="30"/>
</g>
</g></g><g transform="translate(96,120) scale(0.08,0.08)"><g transform="" style="fill: rgb(255, 255, 255);">
<g>
	<circle cx="50" cy="50" r="30"/>
</g>
</g></g><g transform="translate(104,120) scale(0.08,0.08)"><g transform="" style="fill: rgb(255, 255, 255);">
<g>
	<circle cx="50" cy="50" r="30"/>
</g>
</g></g><g transform="translate(120,120) scale(0.08,0.08)"><g transform="" style="fill: rgb(255, 255, 255);">
<g>
	<circle cx="50" cy="50" r="30"/>
</g>
</g></g><g transform="translate(152,120) scale(0.08,0.08)"><g transform="" style="fill: rgb(255, 255, 255);">
<g>
	<circle cx="50" cy="50" r="30"/>
</g>
</g></g><g transform="translate(168,120) scale(0.08,0.08)"><g transform="" style="fill: rgb(255, 255, 255);">
<g>
	<circle cx="50" cy="50" r="30"/>
</g>
</g></g><g transform="translate(192,120) scale(0.08,0.08)"><g transform="" style="fill: rgb(255, 255, 255);">
<g>
	<circle cx="50" cy="50" r="30"/>
</g>
</g></g><g transform="translate(0,128) scale(0.08,0.08)"><g transform="" style="fill: rgb(255, 255, 255);">
<g>
	<circle cx="50" cy="50" r="30"/>
</g>
</g></g><g transform="translate(24,128) scale(0.08,0.08)"><g transform="" style="fill: rgb(255, 255, 255);">
<g>
	<circle cx="50" cy="50" r="30"/>
</g>
</g></g><g transform="translate(48,128) scale(0.08,0.08)"><g transform="" style="fill: rgb(255, 255, 255);">
<g>
	<circle cx="50" cy="50" r="30"/>
</g>
</g></g><g transform="translate(72,128) scale(0.08,0.08)"><g transform="" style="fill: rgb(255, 255, 255);">
<g>
	<circle cx="50" cy="50" r="30"/>
</g>
</g></g><g transform="translate(96,128) scale(0.08,0.08)"><g transform="" style="fill: rgb(255, 255, 255);">
<g>
	<circle cx="50" cy="50" r="30"/>
</g>
</g></g><g transform="translate(112,128) scale(0.08,0.08)"><g transform="" style="fill: rgb(255, 255, 255);">
<g>
	<circle cx="50" cy="50" r="30"/>
</g>
</g></g><g transform="translate(120,128) scale(0.08,0.08)"><g transform="" style="fill: rgb(255, 255, 255);">
<g>
	<circle cx="50" cy="50" r="30"/>
</g>
</g></g><g transform="translate(128,128) scale(0.08,0.08)"><g transform="" style="fill: rgb(255, 255, 255);">
<g>
	<circle cx="50" cy="50" r="30"/>
</g>
</g></g><g transform="translate(136,128) scale(0.08,0.08)"><g transform="" style="fill: rgb(255, 255, 255);">
<g>
	<circle cx="50" cy="50" r="30"/>
</g>
</g></g><g transform="translate(144,128) scale(0.08,0.08)"><g transform="" style="fill: rgb(255, 255, 255);">
<g>
	<circle cx="50" cy="50" r="30"/>
</g>
</g></g><g transform="translate(152,128) scale(0.08,0.08)"><g transform="" style="fill: rgb(255, 255, 255);">
<g>
	<circle cx="50" cy="50" r="30"/>
</g>
</g></g><g transform="translate(160,128) scale(0.08,0.08)"><g transform="" style="fill: rgb(255, 255, 255);">
<g>
	<circle cx="50" cy="50" r="30"/>
</g>
</g></g><g transform="translate(176,128) scale(0.08,0.08)"><g transform="" style="fill: rgb(255, 255, 255);">
<g>
	<circle cx="50" cy="50" r="30"/>
</g>
</g></g><g transform="translate(64,136) scale(0.08,0.08)"><g transform="" style="fill: rgb(255, 255, 255);">
<g>
	<circle cx="50" cy="50" r="30"/>
</g>
</g></g><g transform="translate(72,136) scale(0.08,0.08)"><g transform="" style="fill: rgb(255, 255, 255);">
<g>
	<circle cx="50" cy="50" r="30"/>
</g>
</g></g><g transform="translate(80,136) scale(0.08,0.08)"><g transform="" style="fill: rgb(255, 255, 255);">
<g>
	<circle cx="50" cy="50" r="30"/>
</g>
</g></g><g transform="translate(120,136) scale(0.08,0.08)"><g transform="" style="fill: rgb(255, 255, 255);">
<g>
	<circle cx="50" cy="50" r="30"/>
</g>
</g></g><g transform="translate(128,136) scale(0.08,0.08)"><g transform="" style="fill: rgb(255, 255, 255);">
<g>
	<circle cx="50" cy="50" r="30"/>
</g>
</g></g><g transform="translate(160,136) scale(0.08,0.08)"><g transform="" style="fill: rgb(255, 255, 255);">
<g>
	<circle cx="50" cy="50" r="30"/>
</g>
</g></g><g transform="translate(168,136) scale(0.08,0.08)"><g transform="" style="fill: rgb(255, 255, 255);">
<g>
	<circle cx="50" cy="50" r="30"/>
</g>
</g></g><g transform="translate(176,136) scale(0.08,0.08)"><g transform="" style="fill: rgb(255, 255, 255);">
<g>
	<circle cx="50" cy="50" r="30"/>
</g>
</g></g><g transform="translate(88,144) scale(0.08,0.08)"><g transform="" style="fill: rgb(255, 255, 255);">
<g>
	<circle cx="50" cy="50" r="30"/>
</g>
</g></g><g transform="translate(96,144) scale(0.08,0.08)"><g transform="" style="fill: rgb(255, 255, 255);">
<g>
	<circle cx="50" cy="50" r="30"/>
</g>
</g></g><g transform="translate(128,144) scale(0.08,0.08)"><g transform="" style="fill: rgb(255, 255, 255);">
<g>
	<circle cx="50" cy="50" r="30"/>
</g>
</g></g><g transform="translate(144,144) scale(0.08,0.08)"><g transform="" style="fill: rgb(255, 255, 255);">
<g>
	<circle cx="50" cy="50" r="30"/>
</g>
</g></g><g transform="translate(160,144) scale(0.08,0.08)"><g transform="" style="fill: rgb(255, 255, 255);">
<g>
	<circle cx="50" cy="50" r="30"/>
</g>
</g></g><g transform="translate(168,144) scale(0.08,0.08)"><g transform="" style="fill: rgb(255, 255, 255);">
<g>
	<circle cx="50" cy="50" r="30"/>
</g>
</g></g><g transform="translate(176,144) scale(0.08,0.08)"><g transform="" style="fill: rgb(255, 255, 255);">
<g>
	<circle cx="50" cy="50" r="30"/>
</g>
</g></g><g transform="translate(184,144) scale(0.08,0.08)"><g transform="" style="fill: rgb(255, 255, 255);">
<g>
	<circle cx="50" cy="50" r="30"/>
</g>
</g></g><g transform="translate(192,144) scale(0.08,0.08)"><g transform="" style="fill: rgb(255, 255, 255);">
<g>
	<circle cx="50" cy="50" r="30"/>
</g>
</g></g><g transform="translate(64,152) scale(0.08,0.08)"><g transform="" style="fill: rgb(255, 255, 255);">
<g>
	<circle cx="50" cy="50" r="30"/>
</g>
</g></g><g transform="translate(80,152) scale(0.08,0.08)"><g transform="" style="fill: rgb(255, 255, 255);">
<g>
	<circle cx="50" cy="50" r="30"/>
</g>
</g></g><g transform="translate(88,152) scale(0.08,0.08)"><g transform="" style="fill: rgb(255, 255, 255);">
<g>
	<circle cx="50" cy="50" r="30"/>
</g>
</g></g><g transform="translate(112,152) scale(0.08,0.08)"><g transform="" style="fill: rgb(255, 255, 255);">
<g>
	<circle cx="50" cy="50" r="30"/>
</g>
</g></g><g transform="translate(128,152) scale(0.08,0.08)"><g transform="" style="fill: rgb(255, 255, 255);">
<g>
	<circle cx="50" cy="50" r="30"/>
</g>
</g></g><g transform="translate(160,152) scale(0.08,0.08)"><g transform="" style="fill: rgb(255, 255, 255);">
<g>
	<circle cx="50" cy="50" r="30"/>
</g>
</g></g><g transform="translate(168,152) scale(0.08,0.08)"><g transform="" style="fill: rgb(255, 255, 255);">
<g>
	<circle cx="50" cy="50" r="30"/>
</g>
</g></g><g transform="translate(192,152) scale(0.08,0.08)"><g transform="" style="fill: rgb(255, 255, 255);">
<g>
	<circle cx="50" cy="50" r="30"/>
</g>
</g></g><g transform="translate(64,160) scale(0.08,0.08)"><g transform="" style="fill: rgb(255, 255, 255);">
<g>
	<circle cx="50" cy="50" r="30"/>
</g>
</g></g><g transform="translate(80,160) scale(0.08,0.08)"><g transform="" style="fill: rgb(255, 255, 255);">
<g>
	<circle cx="50" cy="50" r="30"/>
</g>
</g></g><g transform="translate(88,160) scale(0.08,0.08)"><g transform="" style="fill: rgb(255, 255, 255);">
<g>
	<circle cx="50" cy="50" r="30"/>
</g>
</g></g><g transform="translate(120,160) scale(0.08,0.08)"><g transform="" style="fill: rgb(255, 255, 255);">
<g>
	<circle cx="50" cy="50" r="30"/>
</g>
</g></g><g transform="translate(128,160) scale(0.08,0.08)"><g transform="" style="fill: rgb(255, 255, 255);">
<g>
	<circle cx="50" cy="50" r="30"/>
</g>
</g></g><g transform="translate(136,160) scale(0.08,0.08)"><g transform="" style="fill: rgb(255, 255, 255);">
<g>
	<circle cx="50" cy="50" r="30"/>
</g>
</g></g><g transform="translate(144,160) scale(0.08,0.08)"><g transform="" style="fill: rgb(255, 255, 255);">
<g>
	<circle cx="50" cy="50" r="30"/>
</g>
</g></g><g transform="translate(152,160) scale(0.08,0.08)"><g transform="" style="fill: rgb(255, 255, 255);">
<g>
	<circle cx="50" cy="50" r="30"/>
</g>
</g></g><g transform="translate(160,160) scale(0.08,0.08)"><g transform="" style="fill: rgb(255, 255, 255);">
<g>
	<circle cx="50" cy="50" r="30"/>
</g>
</g></g><g transform="translate(168,160) scale(0.08,0.08)"><g transform="" style="fill: rgb(255, 255, 255);">
<g>
	<circle cx="50" cy="50" r="30"/>
</g>
</g></g><g transform="translate(176,160) scale(0.08,0.08)"><g transform="" style="fill: rgb(255, 255, 255);">
<g>
	<circle cx="50" cy="50" r="30"/>
</g>
</g></g><g transform="translate(184,160) scale(0.08,0.08)"><g transform="" style="fill: rgb(255, 255, 255);">
<g>
	<circle cx="50" cy="50" r="30"/>
</g>
</g></g><g transform="translate(192,160) scale(0.08,0.08)"><g transform="" style="fill: rgb(255, 255, 255);">
<g>
	<circle cx="50" cy="50" r="30"/>
</g>
</g></g><g transform="translate(64,168) scale(0.08,0.08)"><g transform="" style="fill: rgb(255, 255, 255);">
<g>
	<circle cx="50" cy="50" r="30"/>
</g>
</g></g><g transform="translate(72,168) scale(0.08,0.08)"><g transform="" style="fill: rgb(255, 255, 255);">
<g>
	<circle cx="50" cy="50" r="30"/>
</g>
</g></g><g transform="translate(96,168) scale(0.08,0.08)"><g transform="" style="fill: rgb(255, 255, 255);">
<g>
	<circle cx="50" cy="50" r="30"/>
</g>
</g></g><g transform="translate(104,168) scale(0.08,0.08)"><g transform="" style="fill: rgb(255, 255, 255);">
<g>
	<circle cx="50" cy="50" r="30"/>
</g>
</g></g><g transform="translate(112,168) scale(0.08,0.08)"><g transform="" style="fill: rgb(255, 255, 255);">
<g>
	<circle cx="50" cy="50" r="30"/>
</g>
</g></g><g transform="translate(120,168) scale(0.08,0.08)"><g transform="" style="fill: rgb(255, 255, 255);">
<g>
	<circle cx="50" cy="50" r="30"/>
</g>
</g></g><g transform="translate(128,168) scale(0.08,0.08)"><g transform="" style="fill: rgb(255, 255, 255);">
<g>
	<circle cx="50" cy="50" r="30"/>
</g>
</g></g><g transform="translate(136,168) scale(0.08,0.08)"><g transform="" style="fill: rgb(255, 255, 255);">
<g>
	<circle cx="50" cy="50" r="30"/>
</g>
</g></g><g transform="translate(144,168) scale(0.08,0.08)"><g transform="" style="fill: rgb(255, 255, 255);">
<g>
	<circle cx="50" cy="50" r="30"/>
</g>
</g></g><g transform="translate(152,168) scale(0.08,0.08)"><g transform="" style="fill: rgb(255, 255, 255);">
<g>
	<circle cx="50" cy="50" r="30"/>
</g>
</g></g><g transform="translate(160,168) scale(0.08,0.08)"><g transform="" style="fill: rgb(255, 255, 255);">
<g>
	<circle cx="50" cy="50" r="30"/>
</g>
</g></g><g transform="translate(176,168) scale(0.08,0.08)"><g transform="" style="fill: rgb(255, 255, 255);">
<g>
	<circle cx="50" cy="50" r="30"/>
</g>
</g></g><g transform="translate(184,168) scale(0.08,0.08)"><g transform="" style="fill: rgb(255, 255, 255);">
<g>
	<circle cx="50" cy="50" r="30"/>
</g>
</g></g><g transform="translate(192,168) scale(0.08,0.08)"><g transform="" style="fill: rgb(255, 255, 255);">
<g>
	<circle cx="50" cy="50" r="30"/>
</g>
</g></g><g transform="translate(64,176) scale(0.08,0.08)"><g transform="" style="fill: rgb(255, 255, 255);">
<g>
	<circle cx="50" cy="50" r="30"/>
</g>
</g></g><g transform="translate(104,176) scale(0.08,0.08)"><g transform="" style="fill: rgb(255, 255, 255);">
<g>
	<circle cx="50" cy="50" r="30"/>
</g>
</g></g><g transform="translate(112,176) scale(0.08,0.08)"><g transform="" style="fill: rgb(255, 255, 255);">
<g>
	<circle cx="50" cy="50" r="30"/>
</g>
</g></g><g transform="translate(152,176) scale(0.08,0.08)"><g transform="" style="fill: rgb(255, 255, 255);">
<g>
	<circle cx="50" cy="50" r="30"/>
</g>
</g></g><g transform="translate(176,176) scale(0.08,0.08)"><g transform="" style="fill: rgb(255, 255, 255);">
<g>
	<circle cx="50" cy="50" r="30"/>
</g>
</g></g><g transform="translate(192,176) scale(0.08,0.08)"><g transform="" style="fill: rgb(255, 255, 255);">
<g>
	<circle cx="50" cy="50" r="30"/>
</g>
</g></g><g transform="translate(72,184) scale(0.08,0.08)"><g transform="" style="fill: rgb(255, 255, 255);">
<g>
	<circle cx="50" cy="50" r="30"/>
</g>
</g></g><g transform="translate(80,184) scale(0.08,0.08)"><g transform="" style="fill: rgb(255, 255, 255);">
<g>
	<circle cx="50" cy="50" r="30"/>
</g>
</g></g><g transform="translate(96,184) scale(0.08,0.08)"><g transform="" style="fill: rgb(255, 255, 255);">
<g>
	<circle cx="50" cy="50" r="30"/>
</g>
</g></g><g transform="translate(104,184) scale(0.08,0.08)"><g transform="" style="fill: rgb(255, 255, 255);">
<g>
	<circle cx="50" cy="50" r="30"/>
</g>
</g></g><g transform="translate(128,184) scale(0.08,0.08)"><g transform="" style="fill: rgb(255, 255, 255);">
<g>
	<circle cx="50" cy="50" r="30"/>
</g>
</g></g><g transform="translate(136,184) scale(0.08,0.08)"><g transform="" style="fill: rgb(255, 255, 255);">
<g>
	<circle cx="50" cy="50" r="30"/>
</g>
</g></g><g transform="translate(152,184) scale(0.08,0.08)"><g transform="" style="fill: rgb(255, 255, 255);">
<g>
	<circle cx="50" cy="50" r="30"/>
</g>
</g></g><g transform="translate(160,184) scale(0.08,0.08)"><g transform="" style="fill: rgb(255, 255, 255);">
<g>
	<circle cx="50" cy="50" r="30"/>
</g>
</g></g><g transform="translate(168,184) scale(0.08,0.08)"><g transform="" style="fill: rgb(255, 255, 255);">
<g>
	<circle cx="50" cy="50" r="30"/>
</g>
</g></g><g transform="translate(192,184) scale(0.08,0.08)"><g transform="" style="fill: rgb(255, 255, 255);">
<g>
	<circle cx="50" cy="50" r="30"/>
</g>
</g></g><g transform="translate(64,192) scale(0.08,0.08)"><g transform="" style="fill: rgb(255, 255, 255);">
<g>
	<circle cx="50" cy="50" r="30"/>
</g>
</g></g><g transform="translate(72,192) scale(0.08,0.08)"><g transform="" style="fill: rgb(255, 255, 255);">
<g>
	<circle cx="50" cy="50" r="30"/>
</g>
</g></g><g transform="translate(96,192) scale(0.08,0.08)"><g transform="" style="fill: rgb(255, 255, 255);">
<g>
	<circle cx="50" cy="50" r="30"/>
</g>
</g></g><g transform="translate(112,192) scale(0.08,0.08)"><g transform="" style="fill: rgb(255, 255, 255);">
<g>
	<circle cx="50" cy="50" r="30"/>
</g>
</g></g><g transform="translate(136,192) scale(0.08,0.08)"><g transform="" style="fill: rgb(255, 255, 255);">
<g>
	<circle cx="50" cy="50" r="30"/>
</g>
</g></g><g transform="translate(152,192) scale(0.08,0.08)"><g transform="" style="fill: rgb(255, 255, 255);">
<g>
	<circle cx="50" cy="50" r="30"/>
</g>
</g></g><g transform="translate(160,192) scale(0.08,0.08)"><g transform="" style="fill: rgb(255, 255, 255);">
<g>
	<circle cx="50" cy="50" r="30"/>
</g>
</g></g><g transform="translate(168,192) scale(0.08,0.08)"><g transform="" style="fill: rgb(255, 255, 255);">
<g>
	<circle cx="50" cy="50" r="30"/>
</g>
</g></g><g transform="translate(176,192) scale(0.08,0.08)"><g transform="" style="fill: rgb(255, 255, 255);">
<g>
	<circle cx="50" cy="50" r="30"/>
</g>
</g></g><g transform="translate(184,192) scale(0.08,0.08)"><g transform="" style="fill: rgb(255, 255, 255);">
<g>
	<circle cx="50" cy="50" r="30"/>
</g>
</g></g><g transform="translate(192,192) scale(0.08,0.08)"><g transform="" style="fill: rgb(255, 255, 255);">
<g>
	<circle cx="50" cy="50" r="30"/>
</g>
</g></g></g></mask></defs></g><rect x="0" y="0" width="200" height="200" fill="url(#grad)" mask="url(#gmask)" /><g transform="translate(0,0) scale(0.56, 0.56)"><g transform=" translate(0,100) scale(1,-1) " style="fill: rgb(254, 108, 0);">
<g>
	<path style="fill:none;" d="M33.78,85H85V15H15.004l0.016,50.855C15.02,76.414,23.436,85,33.78,85z"/>
	<path d="M100,100V65.859V34.141C100,25.65,100,0,100,0S76.46,0,66.25,0H0l0.02,65.859C0.02,84.68,15.16,100,33.78,100h32.47H100z
		 M85,85H33.78c-10.344,0-18.76-8.586-18.76-19.145L15.004,15H85V85z"/>
</g>
</g></g><g transform="translate(144,0) scale(0.56, 0.56)"><g transform=" translate(0,100) scale(1,-1)  translate(100, 0) scale(-1,1) " style="fill: rgb(254, 108, 0);">
<g>
	<path style="fill:none;" d="M33.78,85H85V15H15.004l0.016,50.855C15.02,76.414,23.436,85,33.78,85z"/>
	<path d="M100,100V65.859V34.141C100,25.65,100,0,100,0S76.46,0,66.25,0H0l0.02,65.859C0.02,84.68,15.16,100,33.78,100h32.47H100z
		 M85,85H33.78c-10.344,0-18.76-8.586-18.76-19.145L15.004,15H85V85z"/>
</g>
</g></g><g transform="translate(0,144) scale(0.56, 0.56)"><g transform="" style="fill: rgb(254, 108, 0);">
<g>
	<path style="fill:none;" d="M33.78,85H85V15H15.004l0.016,50.855C15.02,76.414,23.436,85,33.78,85z"/>
	<path d="M100,100V65.859V34.141C100,25.65,100,0,100,0S76.46,0,66.25,0H0l0.02,65.859C0.02,84.68,15.16,100,33.78,100h32.47H100z
		 M85,85H33.78c-10.344,0-18.76-8.586-18.76-19.145L15.004,15H85V85z"/>
</g>
</g></g><g transform="translate(16,16) scale(0.24, 0.24)"><g transform=" translate(0,100) scale(1,-1) " style="fill: rgb(0, 0, 0);">
<g>
</g>
<path d="M72.744-0.021H27.23c-2.341,0-4.612,0.297-6.771,0.875C15.679,2.11,11.418,4.648,8.04,8.09
	c-0.617,0.621-1.206,1.284-1.752,1.96c-3.883,4.767-6.21,10.903-6.21,17.561L0.05,99.979h72.694
	c14.971,0,27.138-12.397,27.138-27.63V27.625v-0.014l0.168-27.617C100.05-0.006,82.107-0.021,72.744-0.021z"/>
</g></g><g transform="translate(160,16) scale(0.24, 0.24)"><g transform="" style="fill: rgb(0, 0, 0);">
<g>
</g>
<path d="M72.744-0.021H27.23c-2.341,0-4.612,0.297-6.771,0.875C15.679,2.11,11.418,4.648,8.04,8.09
	c-0.617,0.621-1.206,1.284-1.752,1.96c-3.883,4.767-6.21,10.903-6.21,17.561L0.05,99.979h72.694
	c14.971,0,27.138-12.397,27.138-27.63V27.625v-0.014l0.168-27.617C100.05-0.006,82.107-0.021,72.744-0.021z"/>
</g></g><g transform="translate(16,160) scale(0.24, 0.24)"><g transform="" style="fill: rgb(0, 0, 0);">
<g>
</g>
<path d="M72.744-0.021H27.23c-2.341,0-4.612,0.297-6.771,0.875C15.679,2.11,11.418,4.648,8.04,8.09
	c-0.617,0.621-1.206,1.284-1.752,1.96c-3.883,4.767-6.21,10.903-6.21,17.561L0.05,99.979h72.694
	c14.971,0,27.138-12.397,27.138-27.63V27.625v-0.014l0.168-27.617C100.05-0.006,82.107-0.021,72.744-0.021z"/>
</g></g></g></svg>